<?xml version="1.0" encoding="UTF-8"?>
<svg xmlns="http://www.w3.org/2000/svg"
  style="display: none;"
  viewBox="0 0 100 100">
  <!-- Font Awesome V5 -->
  <symbol id="check"
    class="svg-icon svg-icon--fa"
    viewBox="0 0 512 512"
    preserveAspectRatio="xMidYMid meet">
    <path d="M173.898 439.404l-166.4-166.4c-9.997-9.997-9.997-26.206 0-36.204l36.203-36.204c9.997-9.998 26.207-9.998 36.204 0L192 312.69 432.095 72.596c9.997-9.997 26.207-9.997 36.204 0l36.203 36.204c9.997 9.997 9.997 26.206 0 36.204l-294.4 294.401c-9.998 9.997-26.207 9.997-36.204-.001z">
    </path>
  </symbol>
  <!-- Font Awesome V5 -->
  <symbol id="react"
    class="svg-icon svg-icon--fa"
    viewBox="0 0 512 512"
    preserveAspectRatio="xMidYMid meet">
    <path d="M418.2 177.2c-5.4-1.8-10.8-3.5-16.2-5.1.9-3.7 1.7-7.4 2.5-11.1 12.3-59.6 4.2-107.5-23.1-123.3-26.3-15.1-69.2.6-112.6 38.4-4.3 3.7-8.5 7.6-12.5 11.5-2.7-2.6-5.5-5.2-8.3-7.7-45.5-40.4-91.1-57.4-118.4-41.5-26.2 15.2-34 60.3-23 116.7 1.1 5.6 2.3 11.1 3.7 16.7-6.4 1.8-12.7 3.8-18.6 5.9C38.3 196.2 0 225.4 0 255.6c0 31.2 40.8 62.5 96.3 81.5 4.5 1.5 9 3 13.6 4.3-1.5 6-2.8 11.9-4 18-10.5 55.5-2.3 99.5 23.9 114.6 27 15.6 72.4-.4 116.6-39.1 3.5-3.1 7-6.3 10.5-9.7 4.4 4.3 9 8.4 13.6 12.4 42.8 36.8 85.1 51.7 111.2 36.6 27-15.6 35.8-62.9 24.4-120.5-.9-4.4-1.9-8.9-3-13.5 3.2-.9 6.3-1.9 9.4-2.9 57.7-19.1 99.5-50 99.5-81.7 0-30.3-39.4-59.7-93.8-78.4zM282.9 92.3c37.2-32.4 71.9-45.1 87.7-36 16.9 9.7 23.4 48.9 12.8 100.4-.7 3.4-1.4 6.7-2.3 10-22.2-5-44.7-8.6-67.3-10.6-13-18.6-27.2-36.4-42.6-53.1 3.9-3.7 7.7-7.2 11.7-10.7zM167.2 307.5c5.1 8.7 10.3 17.4 15.8 25.9-15.6-1.7-31.1-4.2-46.4-7.5 4.4-14.4 9.9-29.3 16.3-44.5 4.6 8.8 9.3 17.5 14.3 26.1zm-30.3-120.3c14.4-3.2 29.7-5.8 45.6-7.8-5.3 8.3-10.5 16.8-15.4 25.4-4.9 8.5-9.7 17.2-14.2 26-6.3-14.9-11.6-29.5-16-43.6zm27.4 68.9c6.6-13.8 13.8-27.3 21.4-40.6s15.8-26.2 24.4-38.9c15-1.1 30.3-1.7 45.9-1.7s31 .6 45.9 1.7c8.5 12.6 16.6 25.5 24.3 38.7s14.9 26.7 21.7 40.4c-6.7 13.8-13.9 27.4-21.6 40.8-7.6 13.3-15.7 26.2-24.2 39-14.9 1.1-30.4 1.6-46.1 1.6s-30.9-.5-45.6-1.4c-8.7-12.7-16.9-25.7-24.6-39s-14.8-26.8-21.5-40.6zm180.6 51.2c5.1-8.8 9.9-17.7 14.6-26.7 6.4 14.5 12 29.2 16.9 44.3-15.5 3.5-31.2 6.2-47 8 5.4-8.4 10.5-17 15.5-25.6zm14.4-76.5c-4.7-8.8-9.5-17.6-14.5-26.2-4.9-8.5-10-16.9-15.3-25.2 16.1 2 31.5 4.7 45.9 8-4.6 14.8-10 29.2-16.1 43.4zM256.2 118.3c10.5 11.4 20.4 23.4 29.6 35.8-19.8-.9-39.7-.9-59.5 0 9.8-12.9 19.9-24.9 29.9-35.8zM140.2 57c16.8-9.8 54.1 4.2 93.4 39 2.5 2.2 5 4.6 7.6 7-15.5 16.7-29.8 34.5-42.9 53.1-22.6 2-45 5.5-67.2 10.4-1.3-5.1-2.4-10.3-3.5-15.5-9.4-48.4-3.2-84.9 12.6-94zm-24.5 263.6c-4.2-1.2-8.3-2.5-12.4-3.9-21.3-6.7-45.5-17.3-63-31.2-10.1-7-16.9-17.8-18.8-29.9 0-18.3 31.6-41.7 77.2-57.6 5.7-2 11.5-3.8 17.3-5.5 6.8 21.7 15 43 24.5 63.6-9.6 20.9-17.9 42.5-24.8 64.5zm116.6 98c-16.5 15.1-35.6 27.1-56.4 35.3-11.1 5.3-23.9 5.8-35.3 1.3-15.9-9.2-22.5-44.5-13.5-92 1.1-5.6 2.3-11.2 3.7-16.7 22.4 4.8 45 8.1 67.9 9.8 13.2 18.7 27.7 36.6 43.2 53.4-3.2 3.1-6.4 6.1-9.6 8.9zm24.5-24.3c-10.2-11-20.4-23.2-30.3-36.3 9.6.4 19.5.6 29.5.6 10.3 0 20.4-.2 30.4-.7-9.2 12.7-19.1 24.8-29.6 36.4zm130.7 30c-.9 12.2-6.9 23.6-16.5 31.3-15.9 9.2-49.8-2.8-86.4-34.2-4.2-3.6-8.4-7.5-12.7-11.5 15.3-16.9 29.4-34.8 42.2-53.6 22.9-1.9 45.7-5.4 68.2-10.5 1 4.1 1.9 8.2 2.7 12.2 4.9 21.6 5.7 44.1 2.5 66.3zm18.2-107.5c-2.8.9-5.6 1.8-8.5 2.6-7-21.8-15.6-43.1-25.5-63.8 9.6-20.4 17.7-41.4 24.5-62.9 5.2 1.5 10.2 3.1 15 4.7 46.6 16 79.3 39.8 79.3 58 0 19.6-34.9 44.9-84.8 61.4zm-149.7-15c25.3 0 45.8-20.5 45.8-45.8s-20.5-45.8-45.8-45.8c-25.3 0-45.8 20.5-45.8 45.8s20.5 45.8 45.8 45.8z"></path>
  </symbol>
  <!-- Font Awesome V5 -->
  <symbol id="adjust"
    class="svg-icon svg-icon--fa"
    viewBox="0 0 512 512"
    preserveAspectRatio="xMidYMid meet">
    <path d="M8 256c0 136.966 111.033 248 248 248s248-111.034 248-248S392.966 8 256 8 8 119.033 8 256zm248 184V72c101.705 0 184 82.311 184 184 0 101.705-82.311 184-184 184z"></path>
  </symbol>
  <!-- Font Awesome V5 -->
  <symbol id="github"
    class="svg-icon svg-icon--fa"
    viewBox="0 0 496 512"
    preserveAspectRatio="xMidYMid meet">
    <path d="M165.9 397.4c0 2-2.3 3.6-5.2 3.6-3.3.3-5.6-1.3-5.6-3.6 0-2 2.3-3.6 5.2-3.6 3-.3 5.6 1.3 5.6 3.6zm-31.1-4.5c-.7 2 1.3 4.3 4.3 4.9 2.6 1 5.6 0 6.2-2s-1.3-4.3-4.3-5.2c-2.6-.7-5.5.3-6.2 2.3zm44.2-1.7c-2.9.7-4.9 2.6-4.6 4.9.3 2 2.9 3.3 5.9 2.6 2.9-.7 4.9-2.6 4.6-4.6-.3-1.9-3-3.2-5.9-2.9zM244.8 8C106.1 8 0 113.3 0 252c0 110.9 69.8 205.8 169.5 239.2 12.8 2.3 17.3-5.6 17.3-12.1 0-6.2-.3-40.4-.3-61.4 0 0-70 15-84.7-29.8 0 0-11.4-29.1-27.8-36.6 0 0-22.9-15.7 1.6-15.4 0 0 24.9 2 38.6 25.8 21.9 38.6 58.6 27.5 72.9 20.9 2.3-16 8.8-27.1 16-33.7-55.9-6.2-112.3-14.3-112.3-110.5 0-27.5 7.6-41.3 23.6-58.9-2.6-6.5-11.1-33.3 2.6-67.9 20.9-6.5 69 27 69 27 20-5.6 41.5-8.5 62.8-8.5s42.8 2.9 62.8 8.5c0 0 48.1-33.6 69-27 13.7 34.7 5.2 61.4 2.6 67.9 16 17.7 25.8 31.5 25.8 58.9 0 96.5-58.9 104.2-114.8 110.5 9.2 7.9 17 22.9 17 46.4 0 33.7-.3 75.4-.3 83.6 0 6.5 4.6 14.4 17.3 12.1C428.2 457.8 496 362.9 496 252 496 113.3 383.5 8 244.8 8zM97.2 352.9c-1.3 1-1 3.3.7 5.2 1.6 1.6 3.9 2.3 5.2 1 1.3-1 1-3.3-.7-5.2-1.6-1.6-3.9-2.3-5.2-1zm-10.8-8.1c-.7 1.3.3 2.9 2.3 3.9 1.6 1 3.6.7 4.3-.7.7-1.3-.3-2.9-2.3-3.9-2-.6-3.6-.3-4.3.7zm32.4 35.6c-1.6 1.3-1 4.3 1.3 6.2 2.3 2.3 5.2 2.6 6.5 1 1.3-1.3.7-4.3-1.3-6.2-2.2-2.3-5.2-2.6-6.5-1zm-11.4-14.7c-1.6 1-1.6 3.6 0 5.9 1.6 2.3 4.3 3.3 5.6 2.3 1.6-1.3 1.6-3.9 0-6.2-1.4-2.3-4-3.3-5.6-2z"></path>
  </symbol>
  <!-- Font Awesome V5 -->
  <symbol id="eye"
    viewBox="0 0 576 512"
    class="svg-icon svg-icon--fa"
    preserveAspectRatio="xMidYMid meet">
    <path d="M572.52 241.4C518.29 135.59 410.93 64 288 64S57.68 135.64 3.48 241.41a32.35 32.35 0 0 0 0 29.19C57.71 376.41 165.07 448 288 448s230.32-71.64 284.52-177.41a32.35 32.35 0 0 0 0-29.19zM288 400a144 144 0 1 1 144-144 143.93 143.93 0 0 1-144 144zm0-240a95.31 95.31 0 0 0-25.31 3.79 47.85 47.85 0 0 1-66.9 66.9A95.78 95.78 0 1 0 288 160z"></path>
  </symbol>
  <!-- Font Awesome V5 -->
  <symbol id="eye-slash"
    viewBox="0 0 640 512"
    class="svg-icon svg-icon--fa"
    preserveAspectRatio="xMidYMid meet">
    <path d="M320 400c-75.85 0-137.25-58.71-142.9-133.11L72.2 185.82c-13.79 17.3-26.48 35.59-36.72 55.59a32.35 32.35 0 0 0 0 29.19C89.71 376.41 197.07 448 320 448c26.91 0 52.87-4 77.89-10.46L346 397.39a144.13 144.13 0 0 1-26 2.61zm313.82 58.1l-110.55-85.44a331.25 331.25 0 0 0 81.25-102.07 32.35 32.35 0 0 0 0-29.19C550.29 135.59 442.93 64 320 64a308.15 308.15 0 0 0-147.32 37.7L45.46 3.37A16 16 0 0 0 23 6.18L3.37 31.45A16 16 0 0 0 6.18 53.9l588.36 454.73a16 16 0 0 0 22.46-2.81l19.64-25.27a16 16 0 0 0-2.82-22.45zm-183.72-142l-39.3-30.38A94.75 94.75 0 0 0 416 256a94.76 94.76 0 0 0-121.31-92.21A47.65 47.65 0 0 1 304 192a46.64 46.64 0 0 1-1.54 10l-73.61-56.89A142.31 142.31 0 0 1 320 112a143.92 143.92 0 0 1 144 144c0 21.63-5.29 41.79-13.9 60.11z"></path>
  </symbol>
  <!-- Font Awesome V5 -->
  <symbol id="user-circle"
    viewBox="0 0 496 512"
    class="svg-icon svg-icon--fa"
    preserveAspectRatio="xMidYMid meet">
    <path d="M248 8C111 8 0 119 0 256s111 248 248 248 248-111 248-248S385 8 248 8zm0 96c48.6 0 88 39.4 88 88s-39.4 88-88 88-88-39.4-88-88 39.4-88 88-88zm0 344c-58.7 0-111.3-26.6-146.5-68.2 18.8-35.4 55.6-59.8 98.5-59.8 2.4 0 4.8.4 7.1 1.1 13 4.2 26.6 6.9 40.9 6.9 14.3 0 28-2.7 40.9-6.9 2.3-.7 4.7-1.1 7.1-1.1 42.9 0 79.7 24.4 98.5 59.8C359.3 421.4 306.7 448 248 448z"></path>
  </symbol>
  <!-- Font Awesome V5 -->
  <symbol id="frontend-mentor-logo"
    viewBox="0 0 26 23"
    class="svg-icon svg-icon--fe-logo"
    preserveAspectRatio="xMidYMid meet">
    <path class="path-1"
      d="M24.459 12.106a.756.756 0 0 1-.307-.065l-6.438-2.883a.751.751 0 0 1 0-1.37l6.438-2.873a.752.752 0 0 1 .991.379.752.752 0 0 1-.38.991l-4.905 2.189 4.906 2.197a.75.75 0 0 1-.305 1.435z"
      fill="#67BECE" />
    <path class="path-2"
      d="M15.686 22.565c-7.078 0-13.266-4.778-15.045-11.62a.749.749 0 1 1 1.451-.378 14.044 14.044 0 0 0 13.594 10.498.75.75 0 0 1 0 1.5z"
      fill="#3F54A3" />
    <path class="path-3"
      d="M13.102 16.336a.75.75 0 0 1-.75-.75V1.33a.75.75 0 0 1 1.5 0v14.257a.75.75 0 0 1-.75.749z"
      fill="#67BECE" />
  </symbol>
  <!-- Font Awesome V5 -->
  <symbol id="sign-out-alt"
    viewBox="0 0 512 512"
    class="svg-icon svg-icon--fa"
    preserveAspectRatio="xMidYMid meet">
    <path d="M497 273L329 441c-15 15-41 4.5-41-17v-96H152c-13.3 0-24-10.7-24-24v-96c0-13.3 10.7-24 24-24h136V88c0-21.4 25.9-32 41-17l168 168c9.3 9.4 9.3 24.6 0 34zM192 436v-40c0-6.6-5.4-12-12-12H96c-17.7 0-32-14.3-32-32V160c0-17.7 14.3-32 32-32h84c6.6 0 12-5.4 12-12V76c0-6.6-5.4-12-12-12H96c-53 0-96 43-96 96v192c0 53 43 96 96 96h84c6.6 0 12-5.4 12-12z"></path>
  </symbol>
  <!-- Font Awesome V5 -->
  <symbol id="address-card"
    viewBox="0 0 576 512"
    class="svg-icon svg-icon--fa"
    preserveAspectRatio="xMidYMid meet">
    <path d="M528 32H48C21.5 32 0 53.5 0 80v352c0 26.5 21.5 48 48 48h480c26.5 0 48-21.5 48-48V80c0-26.5-21.5-48-48-48zm-352 96c35.3 0 64 28.7 64 64s-28.7 64-64 64-64-28.7-64-64 28.7-64 64-64zm112 236.8c0 10.6-10 19.2-22.4 19.2H86.4C74 384 64 375.4 64 364.8v-19.2c0-31.8 30.1-57.6 67.2-57.6h5c12.3 5.1 25.7 8 39.8 8s27.6-2.9 39.8-8h5c37.1 0 67.2 25.8 67.2 57.6v19.2zM512 312c0 4.4-3.6 8-8 8H360c-4.4 0-8-3.6-8-8v-16c0-4.4 3.6-8 8-8h144c4.4 0 8 3.6 8 8v16zm0-64c0 4.4-3.6 8-8 8H360c-4.4 0-8-3.6-8-8v-16c0-4.4 3.6-8 8-8h144c4.4 0 8 3.6 8 8v16zm0-64c0 4.4-3.6 8-8 8H360c-4.4 0-8-3.6-8-8v-16c0-4.4 3.6-8 8-8h144c4.4 0 8 3.6 8 8v16z"></path>
  </symbol>
  <!-- Font Awesome V5 -->
  <symbol id="user-plus"
    viewBox="0 0 640 512"
    class="svg-icon svg-icon--fa"
    preserveAspectRatio="xMidYMid meet">
    <path d="M624 208h-64v-64c0-8.8-7.2-16-16-16h-32c-8.8 0-16 7.2-16 16v64h-64c-8.8 0-16 7.2-16 16v32c0 8.8 7.2 16 16 16h64v64c0 8.8 7.2 16 16 16h32c8.8 0 16-7.2 16-16v-64h64c8.8 0 16-7.2 16-16v-32c0-8.8-7.2-16-16-16zm-400 48c70.7 0 128-57.3 128-128S294.7 0 224 0 96 57.3 96 128s57.3 128 128 128zm89.6 32h-16.7c-22.2 10.2-46.9 16-72.9 16s-50.6-5.8-72.9-16h-16.7C60.2 288 0 348.2 0 422.4V464c0 26.5 21.5 48 48 48h352c26.5 0 48-21.5 48-48v-41.6c0-74.2-60.2-134.4-134.4-134.4z"></path>
  </symbol>
  <!-- Font Awesome V5 -->
  <symbol id="sign-in-alt"
    viewBox="0 0 512 512"
    class="svg-icon svg-icon--fa"
    preserveAspectRatio="xMidYMid meet">
    <path d="M416 448h-84c-6.6 0-12-5.4-12-12v-40c0-6.6 5.4-12 12-12h84c17.7 0 32-14.3 32-32V160c0-17.7-14.3-32-32-32h-84c-6.6 0-12-5.4-12-12V76c0-6.6 5.4-12 12-12h84c53 0 96 43 96 96v192c0 53-43 96-96 96zm-47-201L201 79c-15-15-41-4.5-41 17v96H24c-13.3 0-24 10.7-24 24v96c0 13.3 10.7 24 24 24h136v96c0 21.5 26 32 41 17l168-168c9.3-9.4 9.3-24.6 0-34z"></path>
  </symbol>
  <!-- Font Awesome V5 -->
  <symbol id="envelope"
    viewBox="0 0 512 512"
    class="svg-icon svg-icon--fa"
    preserveAspectRatio="xMidYMid meet">
    <path d="M502.3 190.8c3.9-3.1 9.7-.2 9.7 4.7V400c0 26.5-21.5 48-48 48H48c-26.5 0-48-21.5-48-48V195.6c0-5 5.7-7.8 9.7-4.7 22.4 17.4 52.1 39.5 154.1 113.6 21.1 15.4 56.7 47.8 92.2 47.6 35.7.3 72-32.8 92.3-47.6 102-74.1 131.6-96.3 154-113.7zM256 320c23.2.4 56.6-29.2 73.4-41.4 132.7-96.3 142.8-104.7 173.4-128.7 5.8-4.5 9.2-11.5 9.2-18.9v-19c0-26.5-21.5-48-48-48H48C21.5 64 0 85.5 0 112v19c0 7.4 3.4 14.3 9.2 18.9 30.6 23.9 40.7 32.4 173.4 128.7 16.8 12.2 50.2 41.8 73.4 41.4z"></path>
  </symbol>
  <!-- Font Awesome V5 -->
  <symbol id="biohazard"
    viewBox="0 0 576 512"
    class="svg-icon svg-icon--fa"
    preserveAspectRatio="xMidYMid meet">
    <path d="M287.9 112c18.6 0 36.2 3.8 52.8 9.6 13.3-10.3 23.6-24.3 29.5-40.7-25.2-10.9-53-17-82.2-17-29.1 0-56.9 6-82.1 16.9 5.9 16.4 16.2 30.4 29.5 40.7 16.5-5.7 34-9.5 52.5-9.5zM163.6 438.7c12-11.8 20.4-26.4 24.5-42.4-32.9-26.4-54.8-65.3-58.9-109.6-8.5-2.8-17.2-4.6-26.4-4.6-7.6 0-15.2 1-22.5 3.1 4.1 62.8 35.8 118 83.3 153.5zm224.2-42.6c4.1 16 12.5 30.7 24.5 42.5 47.4-35.5 79.1-90.7 83-153.5-7.2-2-14.7-3-22.2-3-9.2 0-18 1.9-26.6 4.7-4.1 44.2-26 82.9-58.7 109.3zm113.5-205c-17.6-10.4-36.3-16.6-55.3-19.9 6-17.7 10-36.4 10-56.2 0-41-14.5-80.8-41-112.2-2.5-3-6.6-3.7-10-1.8-3.3 1.9-4.8 6-3.6 9.7 4.5 13.8 6.6 26.3 6.6 38.5 0 67.8-53.8 122.9-120 122.9S168 117 168 49.2c0-12.1 2.2-24.7 6.6-38.5 1.2-3.7-.3-7.8-3.6-9.7-3.4-1.9-7.5-1.2-10 1.8C134.6 34.2 120 74 120 115c0 19.8 3.9 38.5 10 56.2-18.9 3.3-37.7 9.5-55.3 19.9-34.6 20.5-61 53.3-74.3 92.4-1.3 3.7.2 7.7 3.5 9.8 3.3 2 7.5 1.3 10-1.6 9.4-10.8 19-19.1 29.2-25.1 57.3-33.9 130.8-13.7 163.9 45 33.1 58.7 13.4 134-43.9 167.9-10.2 6.1-22 10.4-35.8 13.4-3.7.8-6.4 4.2-6.4 8.1.1 4 2.7 7.3 6.5 8 39.7 7.8 80.6.8 115.2-19.7 18-10.6 32.9-24.5 45.3-40.1 12.4 15.6 27.3 29.5 45.3 40.1 34.6 20.5 75.5 27.5 115.2 19.7 3.8-.7 6.4-4 6.5-8 0-3.9-2.6-7.3-6.4-8.1-13.9-2.9-25.6-7.3-35.8-13.4-57.3-33.9-77-109.2-43.9-167.9s106.6-78.9 163.9-45c10.2 6.1 19.8 14.3 29.2 25.1 2.5 2.9 6.7 3.6 10 1.6s4.8-6.1 3.5-9.8c-13.1-39.1-39.5-72-74.1-92.4zm-213.4 129c-26.5 0-48-21.5-48-48s21.5-48 48-48 48 21.5 48 48-21.5 48-48 48z"></path>
  </symbol>
  <symbol id="html5"
    viewBox="0 0 384 512"
    class="svg-icon svg-icon--fa"
    preserveAspectRatio="xMidYMid meet">
    <path d="M0 32l34.9 395.8L191.5 480l157.6-52.2L384 32H0zm308.2 127.9H124.4l4.1 49.4h175.6l-13.6 148.4-97.9 27v.3h-1.1l-98.7-27.3-6-75.8h47.7L138 320l53.5 14.5 53.7-14.5 6-62.2H84.3L71.5 112.2h241.1l-4.4 47.7z"></path>
  </symbol>
  <symbol id="css3-alt"
    viewBox="0 0 384 512"
    class="svg-icon svg-icon--fa"
    preserveAspectRatio="xMidYMid meet">
    <path d="M0 32l34.9 395.8L192 480l157.1-52.2L384 32H0zm313.1 80l-4.8 47.3L193 208.6l-.3 .1h111.5l-12.8 146.6-98.2 28.7-98.8-29.2-6.4-73.9h48.9l3.2 38.3 52.6 13.3 54.7-15.4 3.7-61.6-166.3-.5v-.1l-.2 .1-3.6-46.3L193.1 162l6.5-2.7H76.7L70.9 112h242.2z"></path>
  </symbol>
  <symbol id="js"
    viewBox="0 0 448 512"
    class="svg-icon svg-icon--fa"
    preserveAspectRatio="xMidYMid meet">
    <path d="M0 32v448h448V32H0zm243.8 349.4c0 43.6-25.6 63.5-62.9 63.5-33.7 0-53.2-17.4-63.2-38.5l34.3-20.7c6.6 11.7 12.6 21.6 27.1 21.6 13.8 0 22.6-5.4 22.6-26.5V237.7h42.1v143.7zm99.6 63.5c-39.1 0-64.4-18.6-76.7-43l34.3-19.8c9 14.7 20.8 25.6 41.5 25.6 17.4 0 28.6-8.7 28.6-20.8 0-14.4-11.4-19.5-30.7-28l-10.5-4.5c-30.4-12.9-50.5-29.2-50.5-63.5 0-31.6 24.1-55.6 61.6-55.6 26.8 0 46 9.3 59.8 33.7L368 290c-7.2-12.9-15-18-27.1-18-12.3 0-20.1 7.8-20.1 18 0 12.6 7.8 17.7 25.9 25.6l10.5 4.5c35.8 15.3 55.9 31 55.9 66.2 0 37.8-29.8 58.6-69.7 58.6z"></path>
  </symbol>
  <symbol id="database"
    class="svg-icon svg-icon--fa"
    viewBox="0 0 448 512"
    preserveAspectRatio="xMidYMid meet">
    <path d="M448 80V128C448 172.2 347.7 208 224 208C100.3 208 0 172.2 0 128V80C0 35.82 100.3 0 224 0C347.7 0 448 35.82 448 80zM393.2 214.7C413.1 207.3 433.1 197.8 448 186.1V288C448 332.2 347.7 368 224 368C100.3 368 0 332.2 0 288V186.1C14.93 197.8 34.02 207.3 54.85 214.7C99.66 230.7 159.5 240 224 240C288.5 240 348.3 230.7 393.2 214.7V214.7zM54.85 374.7C99.66 390.7 159.5 400 224 400C288.5 400 348.3 390.7 393.2 374.7C413.1 367.3 433.1 357.8 448 346.1V432C448 476.2 347.7 512 224 512C100.3 512 0 476.2 0 432V346.1C14.93 357.8 34.02 367.3 54.85 374.7z"></path>
  </symbol>

  <symbol id="blog"
    class="svg-icon svg-icon--fa"
    viewBox="0 0 512 512"
    preserveAspectRatio="xMidYMid meet">
    <path d="M217.6 96.1c-12.95-.625-24.66 9.156-25.52 22.37C191.2 131.7 201.2 143.1 214.4 143.1c79.53 5.188 148.4 74.09 153.6 153.6c.8281 12.69 11.39 22.43 23.94 22.43c.5156 0 1.047-.0313 1.578-.0625c13.22-.8438 23.25-12.28 22.39-25.5C409.3 191.8 320.3 102.8 217.6 96.1zM224 0C206.3 0 192 14.31 192 32s14.33 32 32 32c123.5 0 224 100.5 224 224c0 17.69 14.33 32 32 32s32-14.31 32-32C512 129.2 382.8 0 224 0zM172.3 226.8C157.7 223.9 144 235.8 144 250.6v50.37c0 10.25 7.127 18.37 16.75 21.1c18.13 6.75 31.26 24.38 31.26 44.1c0 26.5-21.5 47.1-48.01 47.1c-26.5 0-48.01-21.5-48.01-47.1V120c0-13.25-10.75-23.1-24.01-23.1l-48.01 .0076C10.75 96.02 0 106.8 0 120v247.1c0 89.5 82.14 160.2 175 140.7c54.38-11.5 98.27-55.5 109.8-109.7C302.2 316.1 247.8 241.8 172.3 226.8z"></path>
  </symbol>

  <symbol id="sass"
    class="svg-icon svg-icon--fa"
    viewBox="0 0 640 512"
    preserveAspectRatio="xMidYMid meet">
    <path d="M301.8 378.9c-.3 .6-.6 1.08 0 0zm249.1-87a131.2 131.2 0 0 0 -58 13.5c-5.9-11.9-12-22.3-13-30.1-1.2-9.1-2.5-14.5-1.1-25.3s7.7-26.1 7.6-27.2-1.4-6.6-14.3-6.7-24 2.5-25.29 5.9a122.8 122.8 0 0 0 -5.3 19.1c-2.3 11.7-25.79 53.5-39.09 75.3-4.4-8.5-8.1-16-8.9-22-1.2-9.1-2.5-14.5-1.1-25.3s7.7-26.1 7.6-27.2-1.4-6.6-14.29-6.7-24 2.5-25.3 5.9-2.7 11.4-5.3 19.1-33.89 77.3-42.08 95.4c-4.2 9.2-7.8 16.6-10.4 21.6-.4 .8-.7 1.3-.9 1.7 .3-.5 .5-1 .5-.8-2.2 4.3-3.5 6.7-3.5 6.7v.1c-1.7 3.2-3.6 6.1-4.5 6.1-.6 0-1.9-8.4 .3-19.9 4.7-24.2 15.8-61.8 15.7-63.1-.1-.7 2.1-7.2-7.3-10.7-9.1-3.3-12.4 2.2-13.2 2.2s-1.4 2-1.4 2 10.1-42.4-19.39-42.4c-18.4 0-44 20.2-56.58 38.5-7.9 4.3-25 13.6-43 23.5-6.9 3.8-14 7.7-20.7 11.4-.5-.5-.9-1-1.4-1.5-35.79-38.2-101.9-65.2-99.07-116.5 1-18.7 7.5-67.8 127.1-127.4 98-48.8 176.4-35.4 189.8-5.6 19.4 42.5-41.89 121.6-143.7 133-38.79 4.3-59.18-10.7-64.28-16.3-5.3-5.9-6.1-6.2-8.1-5.1-3.3 1.8-1.2 7 0 10.1 3 7.9 15.5 21.9 36.79 28.9 18.7 6.1 64.18 9.5 119.2-11.8 61.78-23.8 109.9-90.1 95.77-145.6C386.5 18.32 293-.18 204.6 31.22c-52.69 18.7-109.7 48.1-150.7 86.4-48.69 45.6-56.48 85.3-53.28 101.9 11.39 58.9 92.57 97.3 125.1 125.7-1.6 .9-3.1 1.7-4.5 2.5-16.29 8.1-78.18 40.5-93.67 74.7-17.5 38.8 2.9 66.6 16.29 70.4 41.79 11.6 84.58-9.3 107.6-43.6s20.2-79.1 9.6-99.5c-.1-.3-.3-.5-.4-.8 4.2-2.5 8.5-5 12.8-7.5 8.29-4.9 16.39-9.4 23.49-13.3-4 10.8-6.9 23.8-8.4 42.6-1.8 22 7.3 50.5 19.1 61.7 5.2 4.9 11.49 5 15.39 5 13.8 0 20-11.4 26.89-25 8.5-16.6 16-35.9 16-35.9s-9.4 52.2 16.3 52.2c9.39 0 18.79-12.1 23-18.3v.1s.2-.4 .7-1.2c1-1.5 1.5-2.4 1.5-2.4v-.3c3.8-6.5 12.1-21.4 24.59-46 16.2-31.8 31.69-71.5 31.69-71.5a201.2 201.2 0 0 0 6.2 25.8c2.8 9.5 8.7 19.9 13.4 30-3.8 5.2-6.1 8.2-6.1 8.2a.31 .31 0 0 0 .1 .2c-3 4-6.4 8.3-9.9 12.5-12.79 15.2-28 32.6-30 37.6-2.4 5.9-1.8 10.3 2.8 13.7 3.4 2.6 9.4 3 15.69 2.5 11.5-.8 19.6-3.6 23.5-5.4a82.2 82.2 0 0 0 20.19-10.6c12.5-9.2 20.1-22.4 19.4-39.8-.4-9.6-3.5-19.2-7.3-28.2 1.1-1.6 2.3-3.3 3.4-5C434.8 301.7 450.1 270 450.1 270a201.2 201.2 0 0 0 6.2 25.8c2.4 8.1 7.09 17 11.39 25.7-18.59 15.1-30.09 32.6-34.09 44.1-7.4 21.3-1.6 30.9 9.3 33.1 4.9 1 11.9-1.3 17.1-3.5a79.46 79.46 0 0 0 21.59-11.1c12.5-9.2 24.59-22.1 23.79-39.6-.3-7.9-2.5-15.8-5.4-23.4 15.7-6.6 36.09-10.2 62.09-7.2 55.68 6.5 66.58 41.3 64.48 55.8s-13.8 22.6-17.7 25-5.1 3.3-4.8 5.1c.5 2.6 2.3 2.5 5.6 1.9 4.6-.8 29.19-11.8 30.29-38.7 1.6-34-31.09-71.4-89-71.1zm-429.2 144.7c-18.39 20.1-44.19 27.7-55.28 21.3C54.61 451 59.31 421.4 82 400c13.8-13 31.59-25 43.39-32.4 2.7-1.6 6.6-4 11.4-6.9 .8-.5 1.2-.7 1.2-.7 .9-.6 1.9-1.1 2.9-1.7 8.29 30.4 .3 57.2-19.1 78.3zm134.4-91.4c-6.4 15.7-19.89 55.7-28.09 53.6-7-1.8-11.3-32.3-1.4-62.3 5-15.1 15.6-33.1 21.9-40.1 10.09-11.3 21.19-14.9 23.79-10.4 3.5 5.9-12.2 49.4-16.2 59.2zm111 53c-2.7 1.4-5.2 2.3-6.4 1.6-.9-.5 1.1-2.4 1.1-2.4s13.9-14.9 19.4-21.7c3.2-4 6.9-8.7 10.89-13.9 0 .5 .1 1 .1 1.6-.13 17.9-17.32 30-25.12 34.8zm85.58-19.5c-2-1.4-1.7-6.1 5-20.7 2.6-5.7 8.59-15.3 19-24.5a36.18 36.18 0 0 1 1.9 10.8c-.1 22.5-16.2 30.9-25.89 34.4z"></path>
  </symbol>

  <symbol id="node-js"
    class="svg-icon svg-icon--fa"
    viewBox="0 0 448 512"
    preserveAspectRatio="xMidYMid meet">
    <path d="M224 508c-6.7 0-13.5-1.8-19.4-5.2l-61.7-36.5c-9.2-5.2-4.7-7-1.7-8 12.3-4.3 14.8-5.2 27.9-12.7 1.4-.8 3.2-.5 4.6 .4l47.4 28.1c1.7 1 4.1 1 5.7 0l184.7-106.6c1.7-1 2.8-3 2.8-5V149.3c0-2.1-1.1-4-2.9-5.1L226.8 37.7c-1.7-1-4-1-5.7 0L36.6 144.3c-1.8 1-2.9 3-2.9 5.1v213.1c0 2 1.1 4 2.9 4.9l50.6 29.2c27.5 13.7 44.3-2.4 44.3-18.7V167.5c0-3 2.4-5.3 5.4-5.3h23.4c2.9 0 5.4 2.3 5.4 5.3V378c0 36.6-20 57.6-54.7 57.6-10.7 0-19.1 0-42.5-11.6l-48.4-27.9C8.1 389.2 .7 376.3 .7 362.4V149.3c0-13.8 7.4-26.8 19.4-33.7L204.6 9c11.7-6.6 27.2-6.6 38.8 0l184.7 106.7c12 6.9 19.4 19.8 19.4 33.7v213.1c0 13.8-7.4 26.7-19.4 33.7L243.4 502.8c-5.9 3.4-12.6 5.2-19.4 5.2zm149.1-210.1c0-39.9-27-50.5-83.7-58-57.4-7.6-63.2-11.5-63.2-24.9 0-11.1 4.9-25.9 47.4-25.9 37.9 0 51.9 8.2 57.7 33.8 .5 2.4 2.7 4.2 5.2 4.2h24c1.5 0 2.9-.6 3.9-1.7s1.5-2.6 1.4-4.1c-3.7-44.1-33-64.6-92.2-64.6-52.7 0-84.1 22.2-84.1 59.5 0 40.4 31.3 51.6 81.8 56.6 60.5 5.9 65.2 14.8 65.2 26.7 0 20.6-16.6 29.4-55.5 29.4-48.9 0-59.6-12.3-63.2-36.6-.4-2.6-2.6-4.5-5.3-4.5h-23.9c-3 0-5.3 2.4-5.3 5.3 0 31.1 16.9 68.2 97.8 68.2 58.4-.1 92-23.2 92-63.4z"></path>
  </symbol>

  <symbol id="chevron-down"
    class="svg-icon svg-icon--fa"
    preserveAspectRatio="xMidYMid meet"
    viewBox="0 0 448 512">
    <path d="M224 416c-8.188 0-16.38-3.125-22.62-9.375l-192-192c-12.5-12.5-12.5-32.75 0-45.25s32.75-12.5 45.25 0L224 338.8l169.4-169.4c12.5-12.5 32.75-12.5 45.25 0s12.5 32.75 0 45.25l-192 192C240.4 412.9 232.2 416 224 416z"></path>
  </symbol>

  <symbol id="chevron-left"
    class="svg-icon svg-icon--fa"
    preserveAspectRatio="xMidYMid meet"
    viewBox="0 0 320 512">
    <path d="M224 480c-8.188 0-16.38-3.125-22.62-9.375l-192-192c-12.5-12.5-12.5-32.75 0-45.25l192-192c12.5-12.5 32.75-12.5 45.25 0s12.5 32.75 0 45.25L77.25 256l169.4 169.4c12.5 12.5 12.5 32.75 0 45.25C240.4 476.9 232.2 480 224 480z"></path>
  </symbol>

  <symbol id="chevron-right"
    class="svg-icon svg-icon--fa"
    preserveAspectRatio="xMidYMid meet"
    viewBox="0 0 320 512">
    <path d="M96 480c-8.188 0-16.38-3.125-22.62-9.375c-12.5-12.5-12.5-32.75 0-45.25L242.8 256L73.38 86.63c-12.5-12.5-12.5-32.75 0-45.25s32.75-12.5 45.25 0l192 192c12.5 12.5 12.5 32.75 0 45.25l-192 192C112.4 476.9 104.2 480 96 480z"></path>
  </symbol>

  <symbol id="chevron-up"
    class="svg-icon svg-icon--fa"
    preserveAspectRatio="xMidYMid meet"
    viewBox="0 0 448 512">
    <path d="M416 352c-8.188 0-16.38-3.125-22.62-9.375L224 173.3l-169.4 169.4c-12.5 12.5-32.75 12.5-45.25 0s-12.5-32.75 0-45.25l192-192c12.5-12.5 32.75-12.5 45.25 0l192 192c12.5 12.5 12.5 32.75 0 45.25C432.4 348.9 424.2 352 416 352z"></path>
  </symbol>

  <symbol id="calendar"
    class="svg-icon svg-icon--fa"
    preserveAspectRatio="xMidYMid meet"
    viewBox="0 0 448 512">
    <path d="M96 32C96 14.33 110.3 0 128 0C145.7 0 160 14.33 160 32V64H288V32C288 14.33 302.3 0 320 0C337.7 0 352 14.33 352 32V64H400C426.5 64 448 85.49 448 112V160H0V112C0 85.49 21.49 64 48 64H96V32zM448 464C448 490.5 426.5 512 400 512H48C21.49 512 0 490.5 0 464V192H448V464z"></path>
  </symbol>

  <symbol id="calendar-plus"
    class="svg-icon svg-icon--fa"
    preserveAspectRatio="xMidYMid meet"
    viewBox="0 0 448 512">
    <path d="M96 32C96 14.33 110.3 0 128 0C145.7 0 160 14.33 160 32V64H288V32C288 14.33 302.3 0 320 0C337.7 0 352 14.33 352 32V64H400C426.5 64 448 85.49 448 112V160H0V112C0 85.49 21.49 64 48 64H96V32zM448 464C448 490.5 426.5 512 400 512H48C21.49 512 0 490.5 0 464V192H448V464zM200 272V328H144C130.7 328 120 338.7 120 352C120 365.3 130.7 376 144 376H200V432C200 445.3 210.7 456 224 456C237.3 456 248 445.3 248 432V376H304C317.3 376 328 365.3 328 352C328 338.7 317.3 328 304 328H248V272C248 258.7 237.3 248 224 248C210.7 248 200 258.7 200 272z"></path>
  </symbol>

  <symbol id="calendar-minus"
    class="svg-icon svg-icon--fa"
    preserveAspectRatio="xMidYMid meet"
    viewBox="0 0 448 512">
    <path d="M160 32V64H288V32C288 14.33 302.3 0 320 0C337.7 0 352 14.33 352 32V64H400C426.5 64 448 85.49 448 112V160H0V112C0 85.49 21.49 64 48 64H96V32C96 14.33 110.3 0 128 0C145.7 0 160 14.33 160 32zM0 192H448V464C448 490.5 426.5 512 400 512H48C21.49 512 0 490.5 0 464V192zM312 376C325.3 376 336 365.3 336 352C336 338.7 325.3 328 312 328H136C122.7 328 112 338.7 112 352C112 365.3 122.7 376 136 376H312z"></path>
  </symbol>

  <symbol id="screwdriver-wrench"
    class="svg-icon svg-icon--fa"
    preserveAspectRatio="xMidYMid meet"
    viewBox="0 0 512 512">
    <path d="M331.8 224.1c28.29 0 54.88 10.99 74.86 30.97l19.59 19.59c40.01-17.74 71.25-53.3 81.62-96.65c5.725-23.92 5.34-47.08 .2148-68.4c-2.613-10.88-16.43-14.51-24.34-6.604l-68.9 68.9h-75.6V97.2l68.9-68.9c7.912-7.912 4.275-21.73-6.604-24.34c-21.32-5.125-44.48-5.51-68.4 .2148c-55.3 13.23-98.39 60.22-107.2 116.4C224.5 128.9 224.2 137 224.3 145l82.78 82.86C315.2 225.1 323.5 224.1 331.8 224.1zM384 278.6c-23.16-23.16-57.57-27.57-85.39-13.9L191.1 158L191.1 95.99l-127.1-95.99L0 63.1l96 127.1l62.04 .0077l106.7 106.6c-13.67 27.82-9.251 62.23 13.91 85.39l117 117.1c14.62 14.5 38.21 14.5 52.71-.0016l52.75-52.75c14.5-14.5 14.5-38.08-.0016-52.71L384 278.6zM227.9 307L168.7 247.9l-148.9 148.9c-26.37 26.37-26.37 69.08 0 95.45C32.96 505.4 50.21 512 67.5 512s34.54-6.592 47.72-19.78l119.1-119.1C225.5 352.3 222.6 329.4 227.9 307zM64 472c-13.25 0-24-10.75-24-24c0-13.26 10.75-24 24-24S88 434.7 88 448C88 461.3 77.25 472 64 472z"></path>
  </symbol>

  <symbol id="temperature-empty"
    viewBox="0 0 320 512">
    <path d="M272 278.5V112c0-61.87-50.12-112-111.1-112S48 50.13 48 112v166.5c-19.75 24.75-32 55.5-32 89.5c0 79.5 64.5 143.1 144 143.1S304 447.5 304 368C304 334 291.8 303.1 272 278.5zM160 448c-44.13 0-80-35.87-80-79.1c0-25.5 12.25-48.88 32-63.75v-192.3c0-26.5 21.5-48 48-48s48 21.5 48 48v192.3c19.75 14.75 32 38.25 32 63.75C240 412.1 204.1 448 160 448zM160 320c-26.51 0-48 21.49-48 48s21.49 48 48 48s48-21.49 48-48S186.5 320 160 320z"></path>
  </symbol>
  <symbol id="temperature-full"
    class="svg-icon svg-icon--fa"
    preserveAspectRatio="xMidYMid meet"
    viewBox="0 0 320 512">
    <path d="M176 322.9V112c0-8.75-7.25-16-16-16s-16 7.25-16 16v210.9c-18.62 6.625-32 24.25-32 45.13c0 26.5 21.5 48 48 48s48-21.5 48-48C208 347.1 194.6 329.5 176 322.9zM272 278.5V112c0-61.87-50.12-112-111.1-112S48 50.13 48 112v166.5c-19.75 24.75-32 55.5-32 89.5c0 79.5 64.5 143.1 144 143.1S304 447.5 304 368C304 334 291.8 303.1 272 278.5zM160 448c-44.13 0-80-35.87-80-79.1c0-25.5 12.25-48.88 32-63.75v-192.3c0-26.5 21.5-48 48-48s48 21.5 48 48v192.3c19.75 14.75 32 38.25 32 63.75C240 412.1 204.1 448 160 448z"></path>
  </symbol>
  <symbol id="temperature-half"
    class="svg-icon svg-icon--fa"
    preserveAspectRatio="xMidYMid meet"
    viewBox="0 0 320 512">
    <path d="M176 322.9l.0002-114.9c0-8.75-7.25-16-16-16s-15.1 7.25-15.1 16L144 322.9c-18.62 6.625-32 24.25-32 45.13c0 26.5 21.5 48 48 48s48-21.5 48-48C208 347.1 194.6 329.5 176 322.9zM272 278.5V112c0-61.87-50.12-112-111.1-112S48 50.13 48 112v166.5c-19.75 24.75-32 55.5-32 89.5c0 79.5 64.5 143.1 144 143.1S304 447.5 304 368C304 334 291.8 303.1 272 278.5zM160 448c-44.13 0-80-35.87-80-79.1c0-25.5 12.25-48.88 32-63.75v-192.3c0-26.5 21.5-48 48-48s48 21.5 48 48v192.3c19.75 14.75 32 38.25 32 63.75C240 412.1 204.1 448 160 448z"></path>
  </symbol>
  <symbol id="temperature-high"
    class="svg-icon svg-icon--fa"
    preserveAspectRatio="xMidYMid meet"
    viewBox="0 0 512 512">
    <path d="M160 322.9V112C160 103.3 152.8 96 144 96S128 103.3 128 112v210.9C109.4 329.5 96 347.1 96 368C96 394.5 117.5 416 144 416S192 394.5 192 368C192 347.1 178.6 329.5 160 322.9zM416 0c-52.88 0-96 43.13-96 96s43.13 96 96 96s96-43.13 96-96S468.9 0 416 0zM416 128c-17.75 0-32-14.25-32-32s14.25-32 32-32s32 14.25 32 32S433.8 128 416 128zM256 112c0-61.88-50.13-112-112-112s-112 50.13-112 112v166.5c-19.75 24.75-32 55.5-32 89.5c0 79.5 64.5 144 144 144s144-64.5 144-144c0-33.1-12.25-64.88-32-89.5V112zM144 448c-44.13 0-80-35.88-80-80c0-25.5 12.25-48.88 32-63.75v-192.3c0-26.5 21.5-48 48-48S192 85.5 192 112V304.3c19.75 14.75 32 38.25 32 63.75C224 412.1 188.1 448 144 448z"></path>
  </symbol>
  <symbol id="temperature-low"
    class="svg-icon svg-icon--fa"
    preserveAspectRatio="xMidYMid meet"
    viewBox="0 0 512 512">
    <path d="M160 322.9V304C160 295.3 152.8 288 144 288S128 295.3 128 304v18.88C109.4 329.5 96 347.1 96 368C96 394.5 117.5 416 144 416S192 394.5 192 368C192 347.1 178.6 329.5 160 322.9zM256 112c0-61.88-50.13-112-112-112s-112 50.13-112 112v166.5c-19.75 24.75-32 55.5-32 89.5c0 79.5 64.5 144 144 144s144-64.5 144-144c0-33.1-12.25-64.88-32-89.5V112zM144 448c-44.13 0-80-35.88-80-80c0-25.5 12.25-48.88 32-63.75v-192.3c0-26.5 21.5-48 48-48s48 21.5 48 48v192.1c19.75 14.75 32 38.38 32 63.88C224 412.1 188.1 448 144 448zM416 0c-52.88 0-96 43.13-96 96s43.13 96 96 96s96-43.13 96-96S468.9 0 416 0zM416 128c-17.75 0-32-14.25-32-32s14.25-32 32-32s32 14.25 32 32S433.8 128 416 128z"></path>
  </symbol>
  <symbol id="temperature-quarter"
    class="svg-icon svg-icon--fa"
    preserveAspectRatio="xMidYMid meet"
    viewBox="0 0 320 512">
    <path d="M176 322.9l.0002-50.88c0-8.75-7.25-16-16-16s-15.1 7.25-15.1 16L144 322.9c-18.62 6.625-32 24.25-32 45.13c0 26.5 21.5 48 48 48s48-21.5 48-48C208 347.1 194.6 329.5 176 322.9zM272 278.5V112c0-61.87-50.12-112-111.1-112S48 50.13 48 112v166.5c-19.75 24.75-32 55.5-32 89.5c0 79.5 64.5 143.1 144 143.1S304 447.5 304 368C304 334 291.8 303.1 272 278.5zM160 448c-44.13 0-80-35.87-80-79.1c0-25.5 12.25-48.88 32-63.75v-192.3c0-26.5 21.5-48 48-48s48 21.5 48 48v192.3c19.75 14.75 32 38.25 32 63.75C240 412.1 204.1 448 160 448z"></path>
  </symbol>
  <symbol id="temperature-three-quarters"
    class="svg-icon svg-icon--fa"
    preserveAspectRatio="xMidYMid meet"
    viewBox="0 0 320 512">
    <path d="M176 322.9V160c0-8.75-7.25-16-16-16s-16 7.25-16 16v162.9c-18.62 6.625-32 24.25-32 45.13c0 26.5 21.5 48 48 48s48-21.5 48-48C208 347.1 194.6 329.5 176 322.9zM272 278.5V112c0-61.87-50.12-112-111.1-112S48 50.13 48 112v166.5c-19.75 24.75-32 55.5-32 89.5c0 79.5 64.5 143.1 144 143.1S304 447.5 304 368C304 334 291.8 303.1 272 278.5zM160 448c-44.13 0-80-35.87-80-79.1c0-25.5 12.25-48.88 32-63.75v-192.3c0-26.5 21.5-48 48-48s48 21.5 48 48v192.3c19.75 14.75 32 38.25 32 63.75C240 412.1 204.1 448 160 448z"></path>
  </symbol>
  <symbol id="language"
    class="svg-icon svg-icon--fa"
    preserveAspectRatio="xMidYMid meet"
    viewBox="0 0 640 512">
    <path d="M448 164C459 164 468 172.1 468 184V188H528C539 188 548 196.1 548 208C548 219 539 228 528 228H526L524.4 232.5C515.5 256.1 501.9 279.1 484.7 297.9C485.6 298.4 486.5 298.1 487.4 299.5L506.3 310.8C515.8 316.5 518.8 328.8 513.1 338.3C507.5 347.8 495.2 350.8 485.7 345.1L466.8 333.8C462.4 331.1 457.1 328.3 453.7 325.3C443.2 332.8 431.8 339.3 419.8 344.7L416.1 346.3C406 350.8 394.2 346.2 389.7 336.1C385.2 326 389.8 314.2 399.9 309.7L403.5 308.1C409.9 305.2 416.1 301.1 422 298.3L409.9 286.1C402 278.3 402 265.7 409.9 257.9C417.7 250 430.3 250 438.1 257.9L452.7 272.4L453.3 272.1C465.7 259.9 475.8 244.7 483.1 227.1H376C364.1 227.1 356 219 356 207.1C356 196.1 364.1 187.1 376 187.1H428V183.1C428 172.1 436.1 163.1 448 163.1L448 164zM160 233.2L179 276H140.1L160 233.2zM0 128C0 92.65 28.65 64 64 64H576C611.3 64 640 92.65 640 128V384C640 419.3 611.3 448 576 448H64C28.65 448 0 419.3 0 384V128zM320 384H576V128H320V384zM178.3 175.9C175.1 168.7 167.9 164 160 164C152.1 164 144.9 168.7 141.7 175.9L77.72 319.9C73.24 329.1 77.78 341.8 87.88 346.3C97.97 350.8 109.8 346.2 114.3 336.1L123.2 315.1H196.8L205.7 336.1C210.2 346.2 222 350.8 232.1 346.3C242.2 341.8 246.8 329.1 242.3 319.9L178.3 175.9z"></path>
  </symbol>

  <!-- TODO: style the logo -->
  <symbol id="postgresql-logo"
    class="svg-icon svg-icon--psql-logo"
    viewBox="0 0 432.071 445.383"
    preserveAspectRatio="xMidYMid meet">
    <g style="fill-rule:nonzero;clip-rule:nonzero;fill:none;stroke:#FFFFFF;stroke-width:12.4651;stroke-linecap:round;stroke-linejoin:round;stroke-miterlimit:4;">
      <path style="fill:#000000;stroke:#000000;stroke-width:37.3953;stroke-linecap:butt;stroke-linejoin:miter;"
        d="M323.205,324.227c2.833-23.601,1.984-27.062,19.563-23.239l4.463,0.392c13.517,0.615,31.199-2.174,41.587-7c22.362-10.376,35.622-27.7,13.572-23.148c-50.297,10.376-53.755-6.655-53.755-6.655c53.111-78.803,75.313-178.836,56.149-203.322    C352.514-5.534,262.036,26.049,260.522,26.869l-0.482,0.089c-9.938-2.062-21.06-3.294-33.554-3.496c-22.761-0.374-40.032,5.967-53.133,15.904c0,0-161.408-66.498-153.899,83.628c1.597,31.936,45.777,241.655,98.47,178.31    c19.259-23.163,37.871-42.748,37.871-42.748c9.242,6.14,20.307,9.272,31.912,8.147l0.897-0.765c-0.281,2.876-0.157,5.689,0.359,9.019c-13.572,15.167-9.584,17.83-36.723,23.416c-27.457,5.659-11.326,15.734-0.797,18.367c12.768,3.193,42.305,7.716,62.268-20.224    l-0.795,3.188c5.325,4.26,4.965,30.619,5.72,49.452c0.756,18.834,2.017,36.409,5.856,46.771c3.839,10.36,8.369,37.05,44.036,29.406c29.809-6.388,52.6-15.582,54.677-101.107" />
      <path style="fill:#336791;stroke:none;"
        d="M402.395,271.23c-50.302,10.376-53.76-6.655-53.76-6.655c53.111-78.808,75.313-178.843,56.153-203.326c-52.27-66.785-142.752-35.2-144.262-34.38l-0.486,0.087c-9.938-2.063-21.06-3.292-33.56-3.496c-22.761-0.373-40.026,5.967-53.127,15.902    c0,0-161.411-66.495-153.904,83.63c1.597,31.938,45.776,241.657,98.471,178.312c19.26-23.163,37.869-42.748,37.869-42.748c9.243,6.14,20.308,9.272,31.908,8.147l0.901-0.765c-0.28,2.876-0.152,5.689,0.361,9.019c-13.575,15.167-9.586,17.83-36.723,23.416    c-27.459,5.659-11.328,15.734-0.796,18.367c12.768,3.193,42.307,7.716,62.266-20.224l-0.796,3.188c5.319,4.26,9.054,27.711,8.428,48.969c-0.626,21.259-1.044,35.854,3.147,47.254c4.191,11.4,8.368,37.05,44.042,29.406c29.809-6.388,45.256-22.942,47.405-50.555    c1.525-19.631,4.976-16.729,5.194-34.28l2.768-8.309c3.192-26.611,0.507-35.196,18.872-31.203l4.463,0.392c13.517,0.615,31.208-2.174,41.591-7c22.358-10.376,35.618-27.7,13.573-23.148z" />
      <path d="M215.866,286.484c-1.385,49.516,0.348,99.377,5.193,111.495c4.848,12.118,15.223,35.688,50.9,28.045c29.806-6.39,40.651-18.756,45.357-46.051c3.466-20.082,10.148-75.854,11.005-87.281" />
      <path d="M173.104,38.256c0,0-161.521-66.016-154.012,84.109c1.597,31.938,45.779,241.664,98.473,178.316c19.256-23.166,36.671-41.335,36.671-41.335" />
      <path d="M260.349,26.207c-5.591,1.753,89.848-34.889,144.087,34.417c19.159,24.484-3.043,124.519-56.153,203.329" />
      <path style="stroke-linejoin:bevel;"
        d="M348.282,263.953c0,0,3.461,17.036,53.764,6.653c22.04-4.552,8.776,12.774-13.577,23.155c-18.345,8.514-59.474,10.696-60.146-1.069c-1.729-30.355,21.647-21.133,19.96-28.739c-1.525-6.85-11.979-13.573-18.894-30.338    c-6.037-14.633-82.796-126.849,21.287-110.183c3.813-0.789-27.146-99.002-124.553-100.599c-97.385-1.597-94.19,119.762-94.19,119.762" />
      <path d="M188.604,274.334c-13.577,15.166-9.584,17.829-36.723,23.417c-27.459,5.66-11.326,15.733-0.797,18.365c12.768,3.195,42.307,7.718,62.266-20.229c6.078-8.509-0.036-22.086-8.385-25.547c-4.034-1.671-9.428-3.765-16.361,3.994z" />
      <path d="M187.715,274.069c-1.368-8.917,2.93-19.528,7.536-31.942c6.922-18.626,22.893-37.255,10.117-96.339c-9.523-44.029-73.396-9.163-73.436-3.193c-0.039,5.968,2.889,30.26-1.067,58.548c-5.162,36.913,23.488,68.132,56.479,64.938" />
      <path style="fill:#FFFFFF;stroke-width:4.155;stroke-linecap:butt;stroke-linejoin:miter;"
        d="M172.517,141.7c-0.288,2.039,3.733,7.48,8.976,8.207c5.234,0.73,9.714-3.522,9.998-5.559c0.284-2.039-3.732-4.285-8.977-5.015c-5.237-0.731-9.719,0.333-9.996,2.367z" />
      <path style="fill:#FFFFFF;stroke-width:2.0775;stroke-linecap:butt;stroke-linejoin:miter;"
        d="M331.941,137.543c0.284,2.039-3.732,7.48-8.976,8.207c-5.238,0.73-9.718-3.522-10.005-5.559c-0.277-2.039,3.74-4.285,8.979-5.015c5.239-0.73,9.718,0.333,10.002,2.368z" />
      <path d="M350.676,123.432c0.863,15.994-3.445,26.888-3.988,43.914c-0.804,24.748,11.799,53.074-7.191,81.435" />
      <path style="stroke-width:3;"
        d="M0,60.232" />
    </g>
  </symbol>

  <symbol id="pugjs"
    class="svg-icon svg-icon--pugjs-logo"
    viewBox="0 0 128 128"
    preserveAspectRatio="xMidYMid meet">
    <path d="M107.4,50.9c-0.2-4.4,0.4-8.3-1.6-11.6c-4.8-8.2-16.8-13-40.8-13V27c0,0-0.5,0-0.5,0c0,0,0.5,0,0.5,0v-0.7   c-24,0-36.6,4.8-41.4,13.1c-1.9,3.4-1.7,7.2-2,11.6c-0.2,3.5-1.8,7.2-1.1,11.2c0.8,5.2,1.1,10.4,1.9,15.2c0.6,3.9,6,7.2,6.5,10.9   c1.4,10.2,12,14.9,36,14.9v0.8h-0.6h0.1H65v-0.8c24,0,34.2-4.7,35.5-14.9c0.5-3.8,5.5-7,6.1-10.9c0.8-4.8,1.1-10,1.9-15.2   C109.2,58.2,107.6,54.4,107.4,50.9z" />
    <path d="M64.6,54.5c4.3,0.1,7.3,2.8,10.1,5.3c3.3,2.9,8.9,4.9,11.2,7.4c2.3,2.5,5.3,5,6.4,8.9   c1.1,3.9,1.4,8.9,1.4,10.2c0,1.3,0.7,1,2.7,0c4.7-2.3,9.9-8.5,9.9-8.5c-0.6,3.9-5.7,7.4-6.2,11.1C98.9,99.1,89,104,64.5,104h-0.1h0   H65" />
    <path d="M80.4,46.7c0.9,3.1,4.1,13.6-2.1,10.1c0,0,2.6,1.5,4.2,7.2c1.7,5.7,5.8,6.4,5.8,6.4s6.7,1.3,11.7-3   c4.2-3.6,4.9-10,3.1-14.9c-1.8-4.8-5-6.3-9.7-7.3C88.7,44.1,79.3,43.2,80.4,46.7z" />
    <g>
      <circle cx="92.3"
        cy="58.1"
        r="8.8" />
      <circle cx="90"
        cy="54.2"
        r="2.3" />
    </g>
    <path d="M78.9,57.7c0,0,7.9,5.4,12.2,10.7c4.3,5.3,4.2,6.3,4.2,6.3l-3.1,1.4c0,0-4.4-8.3-9.8-11.4   c-5.5-3.1-6.1-5.7-6.1-5.7L78.9,57.7z" />
    <path d="M64.9,54.5c-4.3,0.1-7.5,2.8-10.4,5.3c-3.3,2.9-9.1,4.9-11.4,7.4c-2.3,2.5-5.4,5-6.5,8.9   c-1.1,3.9-1.5,8.9-1.5,10.2c0,1.3,0.2,1.4-2.7,0c-4.7-2.2-9.9-8.5-9.9-8.5c0.6,3.9,5.7,7.4,6.2,11.1C30.1,99.1,40,104,64.5,104h0.1   h0H65" />
    <path d="M88.1,71.4C83.3,65.5,75.6,60,64.9,60h-0.1h0c-10.7,0-18.4,5.5-23.2,11.4c-5,6.1-4.6,8.5-4.6,14.3   c0,21,7.4,15,12.3,17.6c5,2.5,10.2,1.7,15.5,1.7h0h0.1c5.4,0,10.5,0.7,15.5-1.8c4.9-2.5,12.3,3.7,12.3-17.3   C92.8,80.1,93.1,77.5,88.1,71.4z" />
    <path d="M64.4,65.2c0,0-0.7,9.7-2.1,11.6l2.6-0.6L64.4,65.2z" />
    <path d="M65.1,65.2c0,0,0.7,9.7,2.1,11.6l-2.6-0.6L65.1,65.2z" />
    <path d="M56.7,62.9c-1-2.3,2.6-6,8.3-6.1c5.7,0,9.3,3.7,8.3,6.1c-1,2.4-4.6,3.1-8.3,3.2C61.4,66,57.7,65.3,56.7,62.9z" />
    <path d="M65,65.2c0-0.4,3.4-0.5,5.2-1.7c0,0-3.7,1.2-4.5,0.7c-0.8-0.4-1-1.6-1-1.6s-0.3,1.2-0.9,1.6c-0.7,0.4-4.9-0.7-4.9-0.7   s5.6,1.4,5.6,1.7c0,0.3-0.1,1.3-0.1,2c0,2.5,0,8.7,0.4,9.2c0.6,0.9,0.4-6.7,0.4-9.2C65.1,66.4,65.1,65.6,65,65.2z" />
    <path d="M65.2,78.6c1.7,0,4.7,1.2,7.4,3.1c-2.6-2.9-5.7-4.9-7.4-4.9c-1.8,0-5.6,2.2-8.3,5.4   C59.7,80,63.3,78.6,65.2,78.6z" />
    <path d="M64.5,96.3c-3.8,0-7.5-1.2-10.9-2.1c-0.7-0.2-1.4,0.3-2.1,0.1c-6.3-2-11.4-5.4-14.5-9.7c0,0.3,0,0.7,0,1   c0,21,7.4,15.1,12.3,17.6c5,2.5,10.2,1.7,15.5,1.7h0h0.1c5.4,0,10.5,0.7,15.5-1.8c4.9-2.5,12.3,3.6,12.3-17.4c0-0.8,0-1.6,0.1-2.3   c-2.9,4.7-8.2,8.4-14.8,10.6c-0.6,0.2-2-0.3-2.6-0.2C71.8,95,68.6,96.3,64.5,96.3z" />
    <path d="M55,85c0,0-2.5,7.5-0.8,10.8l-2.3-1C51.9,94.8,53.6,87.2,55,85z" />
    <path d="M74.8,85c0,0,2.5,7.5,0.8,10.8l2.3-1C77.9,94.8,76.1,87.2,74.8,85z" />
    <path d="M48.6,46.7c-0.9,3.1-4.1,13.6,2.1,10.1c0,0-2.6,1.5-4.2,7.2s-5.8,6.4-5.8,6.4s-6.7,1.3-11.7-3   c-4.2-3.6-4.9-10-3.1-14.9s5-6.3,9.7-7.3C40.3,44.1,49.6,43.2,48.6,46.7z" />
    <path d="M64.9,76.8c2.7,0,11.1,5.8,11.2,12.9c0-0.1,0-0.2,0-0.4c0-7.4-6.8-13.3-11.2-13.3c-4.4,0-11.2,6-11.2,13.3   c0,0.1,0,0.2,0,0.4C53.8,82.6,62.2,76.8,64.9,76.8z" />
    <g>
      <ellipse transform="matrix(0.9683 -0.2497 0.2497 0.9683 -13.2339 18.6065)"
        cx="66.7"
        cy="61.5"
        rx="0.8"
        ry="1.5" />

      <ellipse transform="matrix(0.9551 0.2963 -0.2963 0.9551 21.0115 -15.7209)"
        cx="62.4"
        cy="61.5"
        rx="0.8"
        ry="1.5" />
    </g>
    <g>
      <circle cx="37.2"
        cy="58.1"
        r="8.8" />
      <circle class="st4"
        cx="39.5"
        cy="54.2"
        r="2.3" />
    </g>
    <g>
      <path d="M67.5,58.2c0-0.1-2.3,1-2.9,1.1c-0.6-0.1-2.9-1.2-2.9-1.1c0,0,1.9,0,2.9,0C65.6,58.2,67.5,58.2,67.5,58.2z" />
    </g>
    <path d="M50,57.7c0,0-7.9,5.4-12.2,10.7c-4.3,5.3-4.2,6.3-4.2,6.3l3.1,1.4c0,0,4.4-8.3,9.8-11.4s6.1-5.7,6.1-5.7   L50,57.7z" />
    <path d="M32.7,41.7c0,0-2.7,7.4-8.7,10.5C24,52.2,33.4,51.1,32.7,41.7z" />
    <path d="M95.8,41.7c0,0,2.7,7.4,8.7,10.5C104.5,52.2,95.1,51.1,95.8,41.7z" />
    <path d="M78.7,55.5c0,0-5.9-6.2-13.8-6.4l0,0c-0.1,0,0.2,0,0.1,0c-0.1,0,0.1,0,0.1,0v0c-8,0.2-13.8,6.4-13.8,6.4   c6.9-4.8,12.8-4.7,13.8-4.7v0c0,0,0,0,0,0c0,0,0,0,0,0v0C65,50.8,71.8,50.7,78.7,55.5z" />
    <path d="M71.8,42.5c0,0-3-4.2-7-4.3l0,0c0,0,0.1,0,0.1,0c0,0,0.1,0,0.1,0v0c-3,0.1-6.9,4.3-6.9,4.3   c3.4-3.3,6.9-3.2,6.9-3.2v0c0,0,0,0,0,0c0,0,0,0,0,0v0C65,39.3,68.3,39.2,71.8,42.5z" />
    <path d="M37.2,73.2c0,0-4.7,2.3-8.1,0.9l0,0c0,0-0.1,0-0.1,0c0,0,0,0,0,0v0c-3-1.7-4.5-6.8-4.5-6.8   S27.5,76.3,37.2,73.2z" />
    <path d="M92,73.2c0,0,4.7,2.3,8.1,0.9l0,0c0,0,0,0,0,0c0,0,0,0,0,0v0c4-1.7,4.6-6.8,4.6-6.8S101.7,76.3,92,73.2z" />
    <g>
      <path d="M42.6,41.2c2.6-0.5,6.9-0.6,10.3,0.5c4.3,1.5,0.8,7,1.7,7.3c0.9,0.3,2.1-3.8,10.1-3.4c8.1,0.4,9,4,10.1,3.4    s-1.1-10,11-7.8c0,0-12.7-3.4-12.1,5.8c0,0-7.3-5.6-17.5-0.6C56.3,46.4,58.9,37.8,42.6,41.2z" />
    </g>
    <path d="M86.9,41.2c0.2,0,0.3,0.1,0.4,0.1C87.4,41.3,87.2,41.2,86.9,41.2z" />
    <path d="M86.9,41.2C86.9,41.2,86.9,41.2,86.9,41.2C86.9,41.2,86.9,41.2,86.9,41.2z" />
    <path d="M39.1,28.9c0,0-10.8,13.6-12.4,18.8c-1.6,5.3-2.8,27-4.2,30.1l-5-21.4l9.2-22.3L39.1,28.9z" />
    <path d="M89.9,28.9c0,0,10.8,13.6,12.4,18.8c1.6,5.3,2.8,27,4.2,30.1l5-21.4l-9.2-22.3L89.9,28.9z" />
    <path d="M89.4,28.9c0,0,11.6,9.7,15,20.9c3.4,11.2,2,24.8,4.6,26.5c3.7,2.4,7.9-11.9,9.3-13.4c2.2-2.4,9.5-8.5,10-9.6   c0.5-1.1-14.8-17.8-21.5-21.1C98.7,28.4,88.7,28.1,89.4,28.9z" />
    <path d="M99.3,34.9c0,0,13.7,17.5,13.5,39.3l5.5-11.2C118.2,63,113.4,48.7,99.3,34.9z" />
    <path d="M39.1,28.9c0,0-11.6,9.7-15,20.9s-2,24.8-4.6,26.5c-3.7,2.4-7.9-11.9-9.3-13.4c-2.2-2.4-9.5-8.5-10-9.6   c-0.5-1.1,14.8-17.8,21.5-21.1C29.8,28.4,39.8,28.1,39.1,28.9z" />
    <path d="M29.2,34.9c0,0-13.7,17.5-13.5,39.3L10.3,63C10.3,63,15.1,48.7,29.2,34.9z" />
    <path d="M21.8,74.6c0,0,1,5.4,2.6,7.1s0.5-1.3,0.5-1.3s-1.7-0.9-1.4-7.8S21.8,74.6,21.8,74.6z" />
    <path d="M107.1,74.6c0,0-1,5.4-2.6,7.1s-0.5-1.3-0.5-1.3s1.7-0.9,1.4-7.8S107.1,74.6,107.1,74.6z" />
    <g>
      <circle cx="54.5"
        cy="70.5"
        r="0.8" />
      <circle cx="49.9"
        cy="75.3"
        r="0.8" />
      <circle cx="48.4"
        cy="70.5"
        r="0.8" />
    </g>
    <g>
      <circle cx="74"
        cy="70.5"
        r="0.8" />
      <circle cx="78.6"
        cy="75.3"
        r="0.8" />
      <circle cx="80.1"
        cy="70.5"
        r="0.8" />
    </g>
  </symbol>

  <symbol id="nextjs"
    class="svg-icon"
    viewBox="0 0 207 124"
    preserveAspectRatio="xMidYMid meet">
    <defs />
    <g id="Page-1"
      stroke="none"
      stroke-width="1"
      fill="none"
      fill-rule="evenodd">
      <g id="Black-Next.js"
        transform="translate(-247.000000, -138.000000)"
        fill="#000000"
        fill-rule="nonzero">
        <g id="next-black"
          transform="translate(247.000000, 138.000000)">
          <g id="EXT-+-Type-something">
            <path d="M48.9421964,32.6320058 L87.9011585,32.6320058 L87.9011585,35.7136421 L52.5134345,35.7136421 L52.5134345,58.9070103 L85.7908813,58.9070103 L85.7908813,61.9886466 L52.5134345,61.9886466 L52.5134345,87.4526941 L88.306981,87.4526941 L88.306981,90.5343303 L48.9421964,90.5343303 L48.9421964,32.6320058 Z M91.3912326,32.6320058 L95.5306221,32.6320058 L113.8738,58.0960534 L132.622801,32.6320058 L158.124498,0.286809811 L116.22757,60.7722112 L137.817329,90.5343303 L133.51561,90.5343303 L113.8738,63.4483691 L94.1508254,90.5343303 L89.9302715,90.5343303 L111.682358,60.7722112 L91.3912326,32.6320058 Z M139.359455,35.713642 L139.359455,32.6320058 L183.756439,32.6320058 L183.756439,35.7136421 L163.302983,35.7136421 L163.302983,90.5343303 L159.731745,90.5343303 L159.731745,35.7136421 L139.359455,35.713642 Z"
              id="EXT" />
            <polygon id="Type-something"
              points="0.202923647 32.6320058 4.66697141 32.6320058 66.2235778 124.303087 40.785176 90.5343303 3.93649086 37.0111732 3.77416185 90.5343303 0.202923647 90.5343303" />
          </g>
          <path d="M183.396622,86.5227221 C184.134938,86.5227221 184.673474,85.9601075 184.673474,85.233037 C184.673474,84.5059658 184.134938,83.9433513 183.396622,83.9433513 C182.666993,83.9433513 182.11977,84.5059658 182.11977,85.233037 C182.11977,85.9601075 182.666993,86.5227221 183.396622,86.5227221 Z M186.905793,83.1297235 C186.905793,85.2763149 188.460599,86.678523 190.727662,86.678523 C193.142388,86.678523 194.601647,85.233037 194.601647,82.7229099 L194.601647,73.8855335 L192.655968,73.8855335 L192.655968,82.7142542 C192.655968,84.1078073 191.952397,84.8521899 190.710289,84.8521899 C189.598473,84.8521899 188.842785,84.1597409 188.816727,83.1297235 L186.905793,83.1297235 Z M197.146664,83.0172011 C197.285642,85.2503478 199.153145,86.678523 201.932686,86.678523 C204.903321,86.678523 206.762139,85.1811034 206.762139,82.792155 C206.762139,80.9138876 205.702439,79.8752151 203.131364,79.2779777 L201.750279,78.9404092 C200.117298,78.5595622 199.457158,78.0488813 199.457158,77.1573541 C199.457158,76.0321243 200.482113,75.296398 202.019547,75.296398 C203.478806,75.296398 204.48639,76.0148135 204.668797,77.1660091 L206.562359,77.1660091 C206.44944,75.0626962 204.590622,73.5825873 202.045605,73.5825873 C199.309495,73.5825873 197.48542,75.0626962 197.48542,77.2871878 C197.48542,79.1221767 198.519063,80.2127835 200.786126,80.7407758 L202.401734,81.1302779 C204.060773,81.5197807 204.790402,82.091051 204.790402,83.0431676 C204.790402,84.1510859 203.643842,84.9560573 202.08035,84.9560573 C200.403939,84.9560573 199.240006,84.2030196 199.074971,83.0172011 L197.146664,83.0172011 Z"
            id=".JS" />
        </g>
      </g>
    </g>
  </symbol>

  <!-- TODO: fix markup and styles -->
  <?ignore
  <symbol id="webpack" class="svg-icon" viewBox="0 0 3916 1524" preserveAspectRatio="xMidYMid meet">
  <metadata id="metadata62">
    <rdf:RDF>
      <cc:Work rdf:about="">
        <dc:format>image/svg+xml</dc:format>
        <dc:type rdf:resource="http://purl.org/dc/dcmitype/StillImage" />
      </cc:Work>
    </rdf:RDF>
  </metadata>
  <defs id="defs60" />
  <path fill="#ffffff"
    d="m 510.01753,215.01859 493.93117,279.3838 V 1053.2976 L 510.01753,1332.6814 16.086372,1053.2976 V 494.40239 Z"
    id="path48"
    style="stroke-width:1.27631" />
  <path fill="#8ed6fb"
    d="M 915.75581,1034.0254 526.35427,1254.3161 V 1082.7803 L 768.9804,949.27852 Z m 26.67483,-24.1223 V 549.28363 l -142.43596,82.32186 v 296.10343 z m -839.68296,24.1223 389.40154,220.2907 V 1082.7803 L 249.39546,949.27852 Z M 76.072843,1009.9031 V 549.28363 L 218.5088,631.60549 V 927.70892 Z M 92.792477,519.41802 492.14922,293.51152 v 165.7924 l -255.89974,140.77676 -2.04209,1.14868 z m 832.918533,0 -399.35674,-225.9065 v 165.7924 l 255.89973,140.64913 2.04209,1.14868 z"
    id="path50"
    style="stroke-width:1.27631" />
  <path fill="#1c78c0"
    d="M 492.14922,1043.7253 252.71386,912.01033 v -260.7497 l 239.43536,138.22414 z m 34.20505,0 239.43536,-131.58734 V 651.26063 L 526.35427,789.48477 Z M 509.25174,779.52957 Z M 268.92297,621.13976 509.25174,489.04189 749.58052,621.13976 509.25174,759.87443 Z"
    id="path52"
    style="stroke-width:1.27631" />
  <path fill="#1a1c1c"
    d="m 1502.0917,950.55483 h 105.2954 l 107.3374,-357.62147 h -102.6151 l -63.5601,253.73001 -67.772,-253.73001 h -88.831 l -68.4101,253.73001 -62.922,-253.73001 H 1157.999 l 106.6994,357.62147 h 105.2954 l 66.368,-229.09727 z m 218.121,-177.78969 c 0,107.33749 73.1324,186.72384 188.1278,186.72384 88.9586,0 136.8202,-53.34967 150.4767,-78.62056 l -62.2839,-47.2234 c -10.2104,15.06044 -38.2892,43.77737 -86.9165,43.77737 -52.7116,0 -91.0008,-34.20506 -93.0429,-82.0666 h 251.8156 c 0.6381,-6.89206 0.6381,-13.6565 0.6381,-20.54856 0,-116.9098 -62.922,-190.80803 -173.7055,-190.80803 -101.977,0 -175.1094,80.66266 -175.1094,188.76594 z m 99.1691,-39.05502 c 4.0842,-40.96949 32.8011,-72.49429 77.3443,-72.49429 43.1392,0 74.5363,28.71693 76.5784,72.49429 z m 285.2548,216.84471 h 88.9587 v -36.8853 c 9.5723,11.6144 45.1813,45.81945 106.0612,45.81945 102.6151,0 175.1094,-77.21662 175.1094,-187.362 0,-110.78352 -67.0062,-188.00015 -169.6213,-188.00015 -61.5181,0 -97.1271,34.20505 -106.0612,46.45761 V 456.11315 h -94.3192 v 494.44168 z m 91.6389,-177.78969 c 0,-67.00617 39.6932,-105.2954 91.6389,-105.2954 54.7536,0 91.6389,43.1392 91.6389,105.2954 0,63.56013 -38.2892,103.25331 -91.6389,103.25331 -57.4338,0 -91.6389,-46.58524 -91.6389,-103.25331 z m 315.2481,305.67576 h 94.3191 v -164.899 c 8.9342,11.6144 44.4155,45.81945 106.0612,45.81945 102.6152,0 169.6213,-77.21663 169.6213,-188.00015 0,-109.37959 -72.4943,-187.362 -175.1094,-187.362 -60.8799,0 -96.4889,34.20505 -106.0612,46.45761 v -37.65108 h -88.9587 v 485.63517 z m 91.6389,-307.71785 c 0,-56.79571 34.205,-103.25331 91.6389,-103.25331 53.3496,0 91.6389,39.69317 91.6389,103.25331 0,62.28382 -36.8853,105.2954 -91.6389,105.2954 -51.9458,0 -91.6389,-38.28924 -91.6389,-105.2954 z m 295.4652,69.04825 c 0,75.17454 61.5181,119.71768 134.0124,119.71768 41.0971,0 68.4101,-12.25255 86.9165,-32.16296 l 6.1263,23.22881 h 83.4706 V 724.13781 c 0,-80.02451 -34.2051,-140.13861 -149.0728,-140.13861 -54.7536,0 -108.7414,20.54856 -140.9044,42.37342 l 35.609,64.32592 c 26.6748,-13.65649 59.4759,-25.2709 95.0849,-25.2709 41.7353,0 64.9641,21.18672 64.9641,52.71152 v 23.2288 c -13.0183,-8.93415 -41.0971,-19.78277 -77.3443,-19.78277 -83.4705,-0.12763 -138.8623,47.73392 -138.8623,118.18611 z m 94.3192,-2.80787 c 0,-29.35509 25.2709,-49.90364 61.518,-49.90364 36.2472,0 62.2839,18.50646 62.2839,49.90364 0,30.12086 -26.0367,49.26548 -61.5181,49.26548 -35.4813,0 -62.2838,-19.78277 -62.2838,-49.26548 z m 445.3038,39.05502 c -59.4759,0 -101.8493,-43.13921 -101.8493,-103.89147 0,-57.43385 37.651,-104.65724 98.5309,-104.65724 40.3314,0 67.772,19.78277 83.4706,34.20505 l 26.6748,-79.38635 c -23.2288,-17.74068 -60.2417,-38.28924 -112.8256,-38.28924 -108.7415,0 -190.1699,80.02451 -190.1699,188.76594 0,108.74143 79.3864,186.72384 190.808,186.72384 51.9458,0 91.0008,-21.82486 111.4217,-38.28923 l -25.2709,-77.21663 c -15.8262,12.89071 -44.5431,32.03533 -80.7903,32.03533 z m 141.5426,74.53638 h 94.3191 V 765.87308 l 119.7177,184.68175 h 110.7835 l -135.4162,-195.658 125.8439,-162.0911 h -106.0612 l -114.8677,150.4767 V 456.11315 h -94.3191 z"
    id="path54"
    style="stroke-width:1.27631" />
</symbol>
  ?>

<!-- TODO: fix markup and styles -->
<?ignore
  <symbol width="300" height="120" id="jinja">
<defs id="defs4">
  <linearGradient id="linearGradient6558">
    <stop style="stop-color:#575757;stop-opacity:1;"
      offset="0"
      id="stop6560" />
    <stop style="stop-color:#2f2f2f;stop-opacity:1;"
      offset="1"
      id="stop6562" />
  </linearGradient>
  <radialGradient inkscape:collect="always"
    xlink:href="#linearGradient6558"
    id="radialGradient6564"
    cx="61.297766"
    cy="60.910986"
    fx="61.297766"
    fy="60.910986"
    r="44.688254"
    gradientTransform="matrix(1,0,0,0.945104,0,3.343747)"
    gradientUnits="userSpaceOnUse" />
  <radialGradient inkscape:collect="always"
    xlink:href="#linearGradient6558"
    id="radialGradient6580"
    gradientUnits="userSpaceOnUse"
    gradientTransform="matrix(1,0,0,0.945104,0.355158,3.334402)"
    cx="61.297766"
    cy="60.910986"
    fx="61.297766"
    fy="60.910986"
    r="44.688254" />
  <linearGradient inkscape:collect="always"
    xlink:href="#linearGradient6558"
    id="linearGradient4173"
    x1="255.15521"
    y1="32.347946"
    x2="279.8912"
    y2="32.347946"
    gradientUnits="userSpaceOnUse"
    gradientTransform="matrix(0.8073249,0,0,0.8073249,57.960878,7.4036303)" />
  <linearGradient inkscape:collect="always"
    xlink:href="#linearGradient6558"
    id="linearGradient5145"
    gradientUnits="userSpaceOnUse"
    gradientTransform="matrix(0.7902775,0,0,0.82474,60.019977,8.0684132)"
    x1="255.15521"
    y1="32.347946"
    x2="279.8912"
    y2="32.347946" />
</defs>
<metadata id="metadata7">
  <rdf:RDF>
    <cc:Work rdf:about="">
      <dc:format>image/svg+xml</dc:format>
      <dc:type rdf:resource="http://purl.org/dc/dcmitype/StillImage" />
    </cc:Work>
  </rdf:RDF>
</metadata>
<g inkscape:label="Layer 1"
  inkscape:groupmode="layer"
  id="layer1">
  <path style="font-size:12px;font-style:normal;font-weight:normal;fill:#f4f4f4;fill-opacity:1;stroke:#e7e7e7;stroke-width:0.8;stroke-linecap:butt;stroke-linejoin:round;stroke-opacity:1;font-family:Bitstream Vera Sans;stroke-miterlimit:4;stroke-dasharray:none"
    d="M 165.36463,80.874808 L 165.36463,80.874808 L 153.32556,80.874808 L 153.32556,81.8344 L 147.64994,81.8344 L 147.64994,36.035583 L 165.36463,36.035583 L 165.36463,20.333129 C 170.58154,21.031083 173.07533,22.077914 172.84609,23.473621 C 172.78871,24.055258 172.21545,24.549594 171.12624,24.956624 L 171.12624,36.035583 L 189.09895,36.035583 L 189.09895,82.532286 L 183.33733,82.532286 L 183.33733,80.874808 L 171.12624,80.874808 L 171.12624,102.94548 L 165.36463,102.94548 L 165.36463,80.874808 M 153.32556,55.489173 L 153.32556,55.489173 L 165.36463,55.489173 L 165.36463,41.793146 L 153.32556,41.793146 L 153.32556,55.489173 M 171.12624,55.489173 L 171.12624,55.489173 L 183.33733,55.489173 L 183.33733,41.793146 L 171.12624,41.793146 L 171.12624,55.489173 M 183.33733,61.333977 L 183.33733,61.333977 L 171.12624,61.333977 L 171.12624,75.030006 L 183.33733,75.030006 L 183.33733,61.333977 M 165.36463,61.333977 L 165.36463,61.333977 L 153.32556,61.333977 L 153.32556,75.030006 L 165.36463,75.030006 L 165.36463,61.333977 M 132.85897,59.414792 C 137.33069,63.136883 140.99969,67.934848 143.86618,73.808701 L 139.13654,77.385372 C 137.24467,72.965445 134.6362,69.12707 131.31114,65.87024 L 131.31114,102.94548 L 125.63554,102.94548 L 125.63554,68.57455 C 122.31042,71.947693 118.52671,74.913707 114.28436,77.47261 L 109.64069,73.372526 C 121.50782,67.091566 130.62312,55.489212 136.98668,38.565417 L 116.26221,38.565417 L 116.26221,32.720615 L 125.80754,32.720615 L 125.80754,20.333129 C 130.85245,21.031083 133.31761,22.048838 133.20299,23.386383 C 133.14561,24.026183 132.57235,24.549594 131.48307,24.956624 L 131.48307,32.720615 L 140.77043,32.720615 L 143.60824,36.733469 C 140.68444,45.51526 137.10137,53.075692 132.85897,59.414792 M 254.11016,49.469901 L 254.11016,49.469901 L 254.11016,20.333129 C 259.21243,21.031083 261.67755,22.048838 261.50562,23.386383 C 261.44823,23.909869 261.04699,24.346044 260.30172,24.694917 C 260.30164,24.694986 260.30164,24.694986 260.30172,24.694917 L 260.30172,24.694917 L 259.78578,24.956624 L 259.78578,49.469901 L 277.15652,49.469901 L 277.15652,55.227471 L 259.78578,55.227471 L 259.78578,93.785712 L 281.45616,93.785712 L 281.45616,99.63051 L 232.35378,99.63051 L 232.35378,93.785712 L 254.11016,93.785712 L 254.11016,55.227471 L 236.22346,55.227471 L 236.22346,49.469901 L 254.11016,49.469901 M 225.5603,59.327554 C 231.12111,63.107798 235.62145,67.876693 239.06127,73.634235 L 234.76157,77.647079 C 231.60845,72.180322 227.82475,67.934848 223.41044,64.910648 L 223.41044,102.94548 L 217.73484,102.94548 L 217.73484,67.44049 C 212.91919,71.627831 207.70222,75.030021 202.084,77.647079 L 197.87027,73.198053 C 212.66118,66.917101 224.01239,55.372897 231.92377,38.565417 L 205.35172,38.565417 L 205.35172,32.720615 L 217.99283,32.720615 L 217.99283,20.333129 C 223.03774,21.031083 225.50291,22.048838 225.38829,23.386383 C 225.33089,24.026183 224.75765,24.549594 223.66837,24.956624 L 223.66837,32.720615 L 236.22346,32.720615 L 238.80326,36.733469 C 235.13421,45.51526 230.71987,53.046611 225.5603,59.327554"
    id="text4761" />
  <path style="font-size:44.09793472px;font-style:normal;font-variant:normal;font-weight:normal;font-stretch:normal;text-align:start;line-height:125%;writing-mode:lr-tb;text-anchor:start;fill:#b41717;fill-opacity:1;stroke:#7f2828;stroke-width:1;stroke-linecap:butt;stroke-linejoin:miter;stroke-opacity:1;font-family:Candara;stroke-miterlimit:4;stroke-dasharray:none"
    d="M 149.14708,37.774469 C 148.97807,41.117899 148.84526,44.824225 148.74871,48.893456 C 148.67626,52.962754 148.3818,70.641328 148.38184,75.524422 C 148.3818,79.065795 148.05588,81.991266 147.40406,84.300835 C 146.75219,86.610422 145.72612,88.557071 144.32585,90.140779 C 142.94969,91.724494 141.17522,92.901283 139.00239,93.671139 C 136.82953,94.440996 134.22211,94.825935 131.18014,94.825935 C 128.83828,94.825935 126.73787,94.59498 124.87889,94.133049 L 125.4221,89.31593 C 127.13623,90.0418 128.92278,90.404734 130.78177,90.404733 C 132.85805,90.404734 134.66875,90.140782 136.2139,89.612876 C 137.78315,89.062981 139.02651,88.216133 139.94396,87.072335 C 140.8855,85.928548 141.54942,84.520804 141.93572,82.8491 C 142.34613,81.177412 142.55134,78.988811 142.55136,76.283285 C 142.55134,66.297119 142.62852,44.659257 142.26641,37.774469 L 149.14708,37.774469 M 166.38498,80.732697 L 159.83024,80.732697 C 160.16821,76.333498 160.33723,71.307412 160.33723,65.654424 C 160.33723,59.2976 159.91471,53.963567 159.06973,49.652319 L 166.31257,48.761483 C 166.02284,53.358679 165.87799,58.98965 165.87799,65.654424 C 165.87799,70.933479 166.04699,75.959565 166.38498,80.732697 M 167.90601,39.490159 C 167.90598,40.611994 167.5076,41.590815 166.7109,42.42662 C 165.91418,43.240515 164.79155,43.647442 163.343,43.647399 C 162.11172,43.647442 161.146,43.295504 160.44588,42.591595 C 159.76988,41.865769 159.43188,40.996927 159.43188,39.98507 C 159.43188,38.885304 159.84231,37.928485 160.66315,37.114591 C 161.48399,36.30078 162.61869,35.893853 164.06727,35.893811 C 165.25023,35.893853 166.17975,36.256783 166.85575,36.982609 C 167.55588,37.686526 167.90598,38.522373 167.90601,39.490159 M 206.72748,80.732697 L 200.13651,80.732697 C 200.66763,74.947749 200.93319,68.634899 200.9332,61.794122 C 200.93319,58.406756 200.1727,56.097177 198.65174,54.865371 C 197.15487,53.61163 195.00619,52.984747 192.20564,52.984714 C 188.77731,52.984747 185.61465,54.117535 182.71753,56.383099 C 182.71753,63.883761 182.76583,72.000287 182.86238,80.732697 L 176.27142,80.732697 C 176.68182,73.254058 176.88707,67.843042 176.88707,64.499632 C 176.88707,59.352589 176.3559,54.359493 175.29363,49.520339 L 181.66734,48.695493 L 182.35539,52.720761 L 182.64511,52.720761 C 186.21823,49.773323 190.04483,48.299592 194.12499,48.299567 C 198.13265,48.299592 201.23499,49.113454 203.43201,50.741118 C 205.62895,52.346863 206.72747,55.217334 206.72748,59.352563 C 206.72747,59.770507 206.70331,60.595362 206.65507,61.827118 C 206.60675,63.058915 206.5826,63.883761 206.58262,64.30167 C 206.5826,67.975018 206.63088,73.452022 206.72748,80.732697 M 222.69791,48.695493 C 222.28747,55.514282 222.08225,62.355041 222.08225,69.21778 C 222.08225,71.043461 222.14262,73.463019 222.26332,76.476468 C 222.40822,79.467925 222.4806,81.502559 222.48063,82.580363 C 222.4806,89.685068 219.51105,93.996287 213.57195,95.514024 L 211.76124,93.006484 C 213.90995,91.356766 215.2378,89.597085 215.74478,87.727431 C 216.49321,85.043912 216.86743,79.324953 216.86743,70.570535 C 216.86743,61.178248 216.3846,54.16153 215.41887,49.520339 L 222.69791,48.695493 M 224.2551,39.490159 C 224.2551,40.611994 223.85673,41.590815 223.06006,42.42662 C 222.26332,43.240515 221.14069,43.647442 219.69213,43.647399 C 218.46084,43.647442 217.49515,43.295504 216.795,42.591595 C 216.119,41.865769 215.781,40.996927 215.781,39.98507 C 215.781,38.885304 216.19144,37.928485 217.01231,37.114591 C 217.83316,36.30078 218.96785,35.893853 220.4164,35.893811 C 221.5994,35.893853 222.52889,36.256783 223.20492,36.982609 C 223.90503,37.686526 224.2551,38.522373 224.2551,39.490159 M 259.60008,80.732697 L 253.91446,80.930661 C 253.62473,79.852857 253.47987,78.830045 253.4799,77.862216 L 253.11774,77.862216 C 250.14817,80.325772 246.10427,81.557546 240.98606,81.557547 C 238.20962,81.557546 235.8195,80.820682 233.81563,79.346948 C 231.81178,77.851221 230.80988,75.728607 230.80988,72.979099 C 230.80988,69.591724 232.37914,66.875216 235.51769,64.829574 C 238.65625,62.761967 244.48667,61.67316 253.00913,61.563165 C 253.08155,61.035275 253.11772,60.430386 253.11774,59.748497 C 253.11772,57.043003 252.32104,55.239336 250.72765,54.337474 C 249.15832,53.435661 246.76819,52.984747 243.55721,52.984714 C 239.76681,52.984747 236.03678,53.413668 232.3671,54.271484 L 232.9827,49.718301 C 236.60411,48.77251 240.76873,48.299592 245.47658,48.299567 C 249.77395,48.299592 253.09359,49.113454 255.43545,50.741118 C 257.77728,52.346863 258.94819,55.096363 258.94824,58.989625 C 258.94819,60.023469 258.88785,61.904117 258.76715,64.631608 C 258.67054,67.337133 258.62228,69.140806 258.6223,70.042632 C 258.62228,74.045913 258.94819,77.609265 259.60008,80.732697 M 253.19019,74.331856 C 253.06945,70.988469 253.00909,67.986016 253.00913,65.324484 C 248.47027,65.324498 245.01786,65.632443 242.65187,66.248318 C 238.69248,67.348131 236.71278,69.448748 236.71278,72.550177 C 236.71278,75.541643 239.03044,77.037371 243.66588,77.037366 C 247.64942,77.037371 250.82416,76.135534 253.19019,74.331856"
    id="text3736"
    sodipodi:nodetypes="ccsscssccscccsccccsccsccsscsssccccscscccsccccscsssccscscccscccsscsssccccccscsccscsccscscsccccssc" />
  <path style="fill:url(#radialGradient6564);fill-opacity:1.0;fill-rule:evenodd;stroke:#323232;stroke-width:1;stroke-linecap:butt;stroke-linejoin:miter;stroke-opacity:1;stroke-miterlimit:4;stroke-dasharray:none"
    d="M 105.45673,18.675923 C 105.45673,18.675923 88.211949,26.918461 74.172834,28.737898 C 60.133727,30.557333 33.360434,32.377571 28.045622,31.093256 C 22.730818,29.808941 18.915645,28.309196 18.915645,28.309196 L 20.021441,32.056583 L 16.609513,35.052471 L 17.2144,36.121726 L 18.61792,36.22764 L 22.92773,36.762252 L 23.532621,38.688909 L 25.937975,38.905784 L 27.143021,42.970927 C 27.143021,42.970927 32.254764,43.399628 33.758953,43.399628 C 35.263142,43.399628 38.271966,43.187802 38.271966,43.187802 L 38.371202,44.791657 L 39.477002,45.003495 L 39.477002,46.824227 L 37.066917,48.967759 L 37.671807,49.073671 L 37.671807,49.820127 C 37.671807,49.820127 32.255457,50.252157 30.049301,49.93109 C 27.843157,49.610006 27.440747,49.608286 27.440747,49.608286 L 27.242258,49.820127 L 27.143021,50.783455 L 27.643946,50.783455 L 27.84242,54.959544 L 38.976091,54.530844 L 38.172728,68.980747 L 38.073481,70.796442 L 28.645781,70.261816 L 28.546544,66.408513 L 30.649462,66.408513 L 30.852673,64.910557 L 32.757107,64.481857 L 33.059555,64.058192 L 25.937975,62.343374 L 20.522364,63.947229 L 21.42496,64.698732 L 22.327572,64.698732 L 22.426809,65.984848 L 24.331254,66.09076 L 24.331254,69.838147 L 22.228335,70.372777 L 22.630009,71.225146 L 23.130934,71.547931 L 23.130934,74.437917 L 24.435218,74.437917 L 24.435218,87.813529 L 22.327572,88.13632 L 22.630009,91.989617 L 23.929569,92.206492 L 23.731093,100.98236 L 29.449141,101.08826 L 28.244105,92.418334 L 36.868446,92.206492 L 36.268285,96.912181 L 35.464925,100.23086 L 44.188501,100.33677 L 44.287739,91.777793 L 50.303506,91.243181 L 50.005786,96.700351 L 49.802585,99.90807 L 54.920484,99.90807 L 54.717274,91.132217 L 55.421397,91.243181 L 55.619882,87.067076 L 54.816521,87.067076 L 54.518798,85.352258 L 54.017874,80.429702 L 54.216359,74.760706 L 55.31743,74.760706 L 55.31743,71.336105 L 53.913913,71.442015 L 54.117112,67.402096 L 55.747469,67.240708 L 55.823083,65.929374 L 56.749319,65.793192 L 57.699176,65.071956 L 51.985842,63.896802 L 46.31977,65.15265 L 46.872668,66.060507 L 47.47283,66.010066 L 48.172228,65.984848 L 48.299828,67.639144 L 49.878196,67.563497 L 49.906548,71.144447 L 43.111042,70.988097 L 43.337879,67.160002 L 43.559978,63.679927 L 43.559978,59.105378 L 43.763188,54.288748 L 57.373101,53.592733 L 73.567955,52.659674 L 73.71917,55.736265 L 73.142647,63.120082 L 72.892183,69.9945 L 66.928387,69.888585 L 66.900039,65.071956 L 69.106918,64.991267 L 69.206169,63.629486 L 70.108765,63.493308 L 70.061506,63.226006 L 70.964116,63.175568 L 71.465028,62.504773 L 64.721507,60.926122 L 58.001612,62.368592 L 58.4789,63.200785 L 59.230285,63.1453 L 59.230285,63.523577 L 60.156518,63.523577 L 60.156518,65.046738 L 62.136575,65.071956 L 62.112937,69.298485 L 60.109259,69.298485 L 60.080907,70.261816 L 60.785031,70.342507 L 60.70942,74.009202 L 62.188552,74.089909 L 62.013701,88.620507 L 60.057282,89.018952 L 60.080907,89.714967 L 60.761406,89.714967 L 60.761406,93.437137 L 61.886113,93.437137 L 61.588391,98.52109 L 61.210343,102.95945 L 68.331912,103.14605 L 68.105084,99.29275 L 67.580538,96.085028 L 67.476575,93.300955 L 73.520696,93.195041 L 73.345845,97.502272 L 73.317494,102.05159 L 76.729426,102.3189 L 81.3653,102.1323 L 82.820807,101.70358 L 82.017437,99.26753 L 81.818959,95.439438 L 81.440912,92.710853 L 87.206218,92.499027 L 86.955759,95.842931 L 86.932133,101.08826 L 89.238253,101.30009 L 91.520751,101.24965 L 92.621828,100.90165 L 91.969693,95.923633 L 91.747577,92.176239 L 92.725793,92.070324 L 92.749427,88.726422 L 93.02352,88.670945 L 92.976244,87.949712 L 91.846823,87.949712 L 91.619996,85.488427 L 91.520751,74.811143 L 92.371377,74.785924 L 92.371377,71.280616 L 92.725793,71.336105 L 92.725793,70.640088 L 91.468773,70.529127 L 91.497126,66.463987 L 93.600043,66.277382 L 93.477182,64.910557 L 94.403419,64.829863 L 94.351424,64.562549 L 95.580099,63.947229 L 89.337489,62.69138 L 82.995657,63.977495 L 83.39733,64.723951 L 84.375543,64.643256 L 84.427528,64.966046 L 85.254515,64.966046 L 85.301775,66.569901 L 87.357445,66.544681 L 87.532293,70.478688 L 80.264217,70.423216 L 79.413593,64.512124 L 78.733106,61.380041 L 78.184923,55.761484 L 78.510996,52.473053 L 92.999878,51.373557 L 93.047136,46.476221 L 93.774891,46.289613 L 93.727651,45.543159 L 93.174743,45.220372 C 93.174629,45.220372 85.252181,46.395266 82.745197,46.66284 C 82.0389,46.738209 82.09239,46.733258 81.516524,46.79397 L 81.440912,45.886118 L 78.444837,44.317564 L 78.482644,42.491786 L 79.512842,42.461518 L 79.588444,39.949808 C 79.588444,39.949808 85.728225,39.546834 88.009582,39.0117 C 90.290937,38.476559 93.524432,37.942456 93.524432,37.942456 L 95.055545,33.79662 L 98.089437,32.913987 L 98.339888,32.217972 L 105.20628,30.316548 L 105.98602,29.676006 L 103.37744,23.976741 L 103.62792,22.690624 L 104.95584,21.994611 L 105.91041,19.079404 L 105.45673,18.675923 z M 72.466874,40.403728 L 72.429067,42.476654 L 73.983813,42.542211 L 73.884576,44.509221 L 70.836515,46.506487 L 70.647496,47.081457 L 71.876167,47.091543 L 71.866712,47.575729 L 62.552432,48.029652 L 62.613863,46.652742 L 63.039175,45.966809 L 63.067524,45.528025 L 63.07698,44.579832 L 63.341609,43.949374 L 63.440849,43.439982 L 63.440849,43.076841 L 63.842533,41.47297 L 72.466874,40.403728 z M 52.987688,42.168984 L 52.760853,43.561027 L 53.488599,44.418431 L 53.441349,45.916386 L 54.117112,46.960408 L 53.942262,48.191039 L 54.443185,48.912273 L 44.939872,49.2855 L 44.916247,48.967759 L 46.017333,48.831579 L 46.069307,48.428097 L 43.66394,47.121797 L 43.536351,45.03375 L 44.689411,44.978276 L 44.788661,42.72883 L 52.987688,42.168984 z M 67.051262,74.276518 L 72.81657,74.649742 L 72.618099,82.411833 L 73.36947,88.776857 L 67.254465,88.565018 L 67.051262,74.276518 z M 28.44258,74.599304 L 37.671807,75.078442 L 36.868446,80.429702 L 36.868446,84.928593 L 37.520583,87.440302 L 28.494569,87.869006 L 28.44258,74.599304 z M 87.508658,74.649742 L 87.508658,87.924488 L 81.644113,88.353194 L 81.440912,81.342592 L 80.788764,74.811143 L 87.508658,74.649742 z M 43.087416,74.947312 L 49.906548,74.972531 L 49.977434,87.278902 L 43.611966,87.389863 L 43.285891,83.400379 L 43.262266,79.441156 L 43.087416,74.947312 z "
    id="path4735" />
</g>
</symbol>
  ?>
</svg>
